<svg class="main-svg" xmlns="http://www.w3.org/2000/svg" xmlns:xlink="http://www.w3.org/1999/xlink" width="1400" height="600" style="" viewBox="0 0 1400 600"><rect x="0" y="0" width="1400" height="600" style="fill: rgb(255, 255, 255); fill-opacity: 1;"/><defs id="defs-1152dd"><g class="clips"><clipPath id="clip1152ddxyplot" class="plotclip"><rect width="324.3" height="420"/></clipPath><clipPath id="clip1152ddx2y2plot" class="plotclip"><rect width="324.29999999999995" height="420"/></clipPath><clipPath id="clip1152ddx3y3plot" class="plotclip"><rect width="324.30000000000007" height="420"/></clipPath><clipPath class="axesclip" id="clip1152ddx"><rect x="82" y="0" width="324.3" height="600"/></clipPath><clipPath class="axesclip" id="clip1152ddy"><rect x="0" y="100" width="1400" height="420"/></clipPath><clipPath class="axesclip" id="clip1152ddxy"><rect x="82" y="100" width="324.3" height="420"/></clipPath><clipPath class="axesclip" id="clip1152ddy2"><rect x="0" y="100" width="1400" height="420"/></clipPath><clipPath class="axesclip" id="clip1152ddxy2"><rect x="82" y="100" width="324.3" height="420"/></clipPath><clipPath class="axesclip" id="clip1152ddy3"><rect x="0" y="100" width="1400" height="420"/></clipPath><clipPath class="axesclip" id="clip1152ddxy3"><rect x="82" y="100" width="324.3" height="420"/></clipPath><clipPath class="axesclip" id="clip1152ddx2"><rect x="460.34999999999997" y="0" width="324.29999999999995" height="600"/></clipPath><clipPath class="axesclip" id="clip1152ddx2y"><rect x="460.34999999999997" y="100" width="324.29999999999995" height="420"/></clipPath><clipPath class="axesclip" id="clip1152ddx2y2"><rect x="460.34999999999997" y="100" width="324.29999999999995" height="420"/></clipPath><clipPath class="axesclip" id="clip1152ddx2y3"><rect x="460.34999999999997" y="100" width="324.29999999999995" height="420"/></clipPath><clipPath class="axesclip" id="clip1152ddx3"><rect x="838.6999999999999" y="0" width="324.30000000000007" height="600"/></clipPath><clipPath class="axesclip" id="clip1152ddx3y"><rect x="838.6999999999999" y="100" width="324.30000000000007" height="420"/></clipPath><clipPath class="axesclip" id="clip1152ddx3y2"><rect x="838.6999999999999" y="100" width="324.30000000000007" height="420"/></clipPath><clipPath class="axesclip" id="clip1152ddx3y3"><rect x="838.6999999999999" y="100" width="324.30000000000007" height="420"/></clipPath></g><g class="gradients"/><g class="patterns"/></defs><g class="bglayer"/><g class="layer-below"><g class="imagelayer"/><g class="shapelayer"/></g><g class="cartesianlayer"><g class="subplot xy"><g class="layer-subplot"><g class="shapelayer"/><g class="imagelayer"/></g><g class="minor-gridlayer"><g class="x"/><g class="y"/></g><g class="gridlayer"><g class="x"><path class="xgrid crisp" transform="translate(119.06,0)" d="M0,100v420" style="stroke: rgb(211, 211, 211); stroke-opacity: 1; stroke-width: 1px;"/><path class="xgrid crisp" transform="translate(202.45,0)" d="M0,100v420" style="stroke: rgb(211, 211, 211); stroke-opacity: 1; stroke-width: 1px;"/><path class="xgrid crisp" transform="translate(285.85,0)" d="M0,100v420" style="stroke: rgb(211, 211, 211); stroke-opacity: 1; stroke-width: 1px;"/><path class="xgrid crisp" transform="translate(369.24,0)" d="M0,100v420" style="stroke: rgb(211, 211, 211); stroke-opacity: 1; stroke-width: 1px;"/></g><g class="y"><path class="ygrid crisp" transform="translate(0,499.19)" d="M82,0h324.3" style="stroke: rgb(211, 211, 211); stroke-opacity: 1; stroke-width: 1px;"/><path class="ygrid crisp" transform="translate(0,422.71)" d="M82,0h324.3" style="stroke: rgb(211, 211, 211); stroke-opacity: 1; stroke-width: 1px;"/><path class="ygrid crisp" transform="translate(0,346.22)" d="M82,0h324.3" style="stroke: rgb(211, 211, 211); stroke-opacity: 1; stroke-width: 1px;"/><path class="ygrid crisp" transform="translate(0,269.73)" d="M82,0h324.3" style="stroke: rgb(211, 211, 211); stroke-opacity: 1; stroke-width: 1px;"/><path class="ygrid crisp" transform="translate(0,193.25)" d="M82,0h324.3" style="stroke: rgb(211, 211, 211); stroke-opacity: 1; stroke-width: 1px;"/><path class="ygrid crisp" transform="translate(0,116.76)" d="M82,0h324.3" style="stroke: rgb(211, 211, 211); stroke-opacity: 1; stroke-width: 1px;"/></g></g><g class="zerolinelayer"/><g class="layer-between"><g class="shapelayer"/><g class="imagelayer"/></g><path class="xlines-below"/><path class="ylines-below"/><g class="overlines-below"/><g class="xaxislayer-below"/><g class="yaxislayer-below"/><g class="overaxes-below"/><g class="overplot"><g class="xy" transform="translate(82,100)" clip-path="url(#clip1152ddxyplot)"><g class="violinlayer mlayer"><g class="trace violins" style="opacity: 0.7;"><path class="violin" d="M37.06,26.52L20.99,26.52Q18.88,34.22 18.12,38.1C17.37,41.94 16.77,45.81 16.45,49.68C16.13,53.53 16.07,57.41 16.21,61.27C16.35,65.13 16.78,69 17.28,72.85C17.78,76.72 18.52,80.57 19.22,84.43C19.93,88.3 20.76,92.16 21.51,96.02C22.26,99.88 23.03,103.73 23.7,107.6C24.37,111.45 24.99,115.31 25.53,119.18C26.07,123.04 26.52,126.9 26.93,130.77C27.34,134.63 27.66,138.49 27.98,142.35C28.3,146.21 28.56,150.08 28.83,153.94C29.1,157.8 29.35,161.66 29.6,165.52C29.85,169.38 30.1,173.24 30.34,177.1C30.58,180.96 30.82,184.83 31.05,188.69C31.27,192.55 31.49,196.41 31.69,200.27C31.88,204.13 32.07,207.99 32.22,211.85C32.37,215.71 32.5,219.58 32.61,223.44C32.72,227.3 32.8,231.16 32.86,235.02C32.92,238.88 32.96,242.74 32.99,246.6C33.02,250.46 33.04,254.33 33.05,258.19C33.06,262.05 33.06,265.91 33.07,269.77C33.08,273.63 33.08,277.5 33.09,281.36C33.1,285.22 33.1,289.08 33.11,292.94C33.12,296.8 33.13,300.66 33.14,304.52C33.15,308.38 33.16,312.25 33.18,316.11C33.2,319.97 33.22,323.83 33.25,327.69C33.28,331.55 33.31,335.41 33.36,339.27C33.41,343.13 33.47,347 33.55,350.86C33.63,354.72 33.71,358.58 33.82,362.44C33.93,366.3 34.06,370.16 34.2,374.02C34.34,377.88 34.5,381.75 34.66,385.61Q34.82,389.47 35.16,397.19L37.06,397.19" style="vector-effect: none; stroke-width: 2px; stroke: rgb(255, 0, 0); stroke-opacity: 1; fill: rgb(255, 0, 0); fill-opacity: 1;"/><path class="meanline" d="M26.56351089477539,127.42H37.06" style="fill: none; vector-effect: none; stroke-width: 10px; stroke-dasharray: 20px, 10px; stroke: rgb(0, 0, 0); stroke-opacity: 1;"/><g class="points"><path class="point" transform="translate(37.06,397.19)" d="M3,0A3,3 0 1,1 0,-3A3,3 0 0,1 3,0Z" style="opacity: 1; stroke-width: 0px; fill: rgb(255, 0, 0); fill-opacity: 1;"/><path class="point" transform="translate(37.06,384.74)" d="M3,0A3,3 0 1,1 0,-3A3,3 0 0,1 3,0Z" style="opacity: 1; stroke-width: 0px; fill: rgb(255, 0, 0); fill-opacity: 1;"/><path class="point" transform="translate(37.06,381.61)" d="M3,0A3,3 0 1,1 0,-3A3,3 0 0,1 3,0Z" style="opacity: 1; stroke-width: 0px; fill: rgb(255, 0, 0); fill-opacity: 1;"/><path class="point" transform="translate(37.06,372.5)" d="M3,0A3,3 0 1,1 0,-3A3,3 0 0,1 3,0Z" style="opacity: 1; stroke-width: 0px; fill: rgb(255, 0, 0); fill-opacity: 1;"/><path class="point" transform="translate(37.06,370.01)" d="M3,0A3,3 0 1,1 0,-3A3,3 0 0,1 3,0Z" style="opacity: 1; stroke-width: 0px; fill: rgb(255, 0, 0); fill-opacity: 1;"/><path class="point" transform="translate(37.06,368.19)" d="M3,0A3,3 0 1,1 0,-3A3,3 0 0,1 3,0Z" style="opacity: 1; stroke-width: 0px; fill: rgb(255, 0, 0); fill-opacity: 1;"/><path class="point" transform="translate(37.06,361.11)" d="M3,0A3,3 0 1,1 0,-3A3,3 0 0,1 3,0Z" style="opacity: 1; stroke-width: 0px; fill: rgb(255, 0, 0); fill-opacity: 1;"/></g></g><g class="trace violins" style="opacity: 0.7;"><path class="violin" d="M37.06,398.74L38.23,398.74Q38.39,392.45 38.46,389.3C38.53,386.15 38.59,383.01 38.65,379.86C38.71,376.72 38.76,373.57 38.81,370.43C38.86,367.28 38.89,364.14 38.93,360.99C38.97,357.84 39,354.7 39.04,351.55C39.08,348.4 39.12,345.26 39.16,342.11C39.2,338.96 39.25,335.82 39.3,332.67C39.35,329.52 39.41,326.38 39.47,323.23C39.53,320.08 39.6,316.94 39.67,313.79C39.74,310.65 39.8,307.5 39.87,304.36C39.94,301.21 40.01,298.07 40.07,294.92C40.13,291.77 40.18,288.63 40.24,285.48C40.29,282.33 40.35,279.19 40.4,276.04C40.45,272.89 40.5,269.75 40.55,266.6C40.6,263.45 40.66,260.31 40.72,257.16C40.78,254.01 40.84,250.87 40.9,247.72C40.96,244.57 41.01,241.43 41.06,238.28C41.11,235.14 41.16,231.99 41.19,228.85C41.22,225.7 41.25,222.56 41.26,219.41C41.27,216.26 41.28,213.12 41.27,209.97C41.26,206.82 41.24,203.68 41.22,200.53C41.2,197.38 41.18,194.24 41.16,191.09C41.14,187.94 41.11,184.8 41.1,181.65C41.09,178.5 41.08,175.36 41.09,172.21C41.1,169.07 41.1,165.92 41.14,162.78C41.18,159.63 41.23,156.49 41.31,153.34C41.39,150.19 41.49,147.05 41.64,143.9C41.79,140.75 41.96,137.6 42.19,134.46C42.42,131.31 42.69,128.16 43.03,125.02C43.37,121.87 43.75,118.72 44.22,115.58C44.69,112.43 45.22,109.28 45.83,106.14C46.44,102.99 47.13,99.84 47.88,96.7C48.63,93.55 49.48,90.41 50.32,87.27C51.17,84.12 52.1,80.98 52.95,77.83C53.8,74.69 54.69,71.55 55.41,68.39C56.12,65.25 56.81,62.11 57.23,58.95C57.64,55.82 57.92,52.66 57.91,49.51C57.9,46.36 57.64,43.2 57.16,40.07C56.68,36.91 55.89,33.75 55.01,30.63Q54.12,27.46 51.83,21.2L37.06,21.2" style="vector-effect: none; stroke-width: 2px; stroke: rgb(0, 128, 0); stroke-opacity: 1; fill: rgb(0, 128, 0); fill-opacity: 1;"/><path class="meanline" d="M44.16831970214844,115.93H37.06" style="fill: none; vector-effect: none; stroke-width: 10px; stroke-dasharray: 20px, 10px; stroke: rgb(0, 0, 0); stroke-opacity: 1;"/><g class="points"><path class="point" transform="translate(37.06,398.74)" d="M3,0A3,3 0 1,1 0,-3A3,3 0 0,1 3,0Z" style="opacity: 1; stroke-width: 0px; fill: rgb(0, 128, 0); fill-opacity: 1;"/><path class="point" transform="translate(37.06,398.22)" d="M3,0A3,3 0 1,1 0,-3A3,3 0 0,1 3,0Z" style="opacity: 1; stroke-width: 0px; fill: rgb(0, 128, 0); fill-opacity: 1;"/><path class="point" transform="translate(37.06,396.78)" d="M3,0A3,3 0 1,1 0,-3A3,3 0 0,1 3,0Z" style="opacity: 1; stroke-width: 0px; fill: rgb(0, 128, 0); fill-opacity: 1;"/><path class="point" transform="translate(37.06,396.64)" d="M3,0A3,3 0 1,1 0,-3A3,3 0 0,1 3,0Z" style="opacity: 1; stroke-width: 0px; fill: rgb(0, 128, 0); fill-opacity: 1;"/><path class="point" transform="translate(37.06,396.03)" d="M3,0A3,3 0 1,1 0,-3A3,3 0 0,1 3,0Z" style="opacity: 1; stroke-width: 0px; fill: rgb(0, 128, 0); fill-opacity: 1;"/><path class="point" transform="translate(37.06,395.83)" d="M3,0A3,3 0 1,1 0,-3A3,3 0 0,1 3,0Z" style="opacity: 1; stroke-width: 0px; fill: rgb(0, 128, 0); fill-opacity: 1;"/><path class="point" transform="translate(37.06,395.56)" d="M3,0A3,3 0 1,1 0,-3A3,3 0 0,1 3,0Z" style="opacity: 1; stroke-width: 0px; fill: rgb(0, 128, 0); fill-opacity: 1;"/><path class="point" transform="translate(37.06,392.49)" d="M3,0A3,3 0 1,1 0,-3A3,3 0 0,1 3,0Z" style="opacity: 1; stroke-width: 0px; fill: rgb(0, 128, 0); fill-opacity: 1;"/><path class="point" transform="translate(37.06,389.61)" d="M3,0A3,3 0 1,1 0,-3A3,3 0 0,1 3,0Z" style="opacity: 1; stroke-width: 0px; fill: rgb(0, 128, 0); fill-opacity: 1;"/><path class="point" transform="translate(37.06,385.68)" d="M3,0A3,3 0 1,1 0,-3A3,3 0 0,1 3,0Z" style="opacity: 1; stroke-width: 0px; fill: rgb(0, 128, 0); fill-opacity: 1;"/><path class="point" transform="translate(37.06,383.37)" d="M3,0A3,3 0 1,1 0,-3A3,3 0 0,1 3,0Z" style="opacity: 1; stroke-width: 0px; fill: rgb(0, 128, 0); fill-opacity: 1;"/><path class="point" transform="translate(37.06,381.66)" d="M3,0A3,3 0 1,1 0,-3A3,3 0 0,1 3,0Z" style="opacity: 1; stroke-width: 0px; fill: rgb(0, 128, 0); fill-opacity: 1;"/><path class="point" transform="translate(37.06,378.8)" d="M3,0A3,3 0 1,1 0,-3A3,3 0 0,1 3,0Z" style="opacity: 1; stroke-width: 0px; fill: rgb(0, 128, 0); fill-opacity: 1;"/></g></g><g class="trace violins" style="opacity: 0.7;"><path class="violin" d="M120.45,43.15L116.91,43.15Q116.34,50.79 116.1,54.62C115.86,58.44 115.65,62.27 115.49,66.1C115.33,69.93 115.21,73.75 115.14,77.58C115.07,81.41 115.04,85.23 115.04,89.06C115.04,92.89 115.09,96.71 115.13,100.54C115.17,104.37 115.23,108.19 115.26,112.02C115.29,115.85 115.32,119.67 115.3,123.5C115.28,127.33 115.23,131.15 115.12,134.98C115.01,138.81 114.85,142.63 114.66,146.46C114.47,150.29 114.22,154.11 113.96,157.94C113.7,161.77 113.39,165.59 113.08,169.42C112.77,173.25 112.45,177.07 112.12,180.9C111.79,184.72 111.45,188.55 111.1,192.37C110.75,196.2 110.41,200.02 110.03,203.85C109.65,207.68 109.27,211.51 108.84,215.33C108.41,219.16 107.95,222.99 107.46,226.81C106.97,230.64 106.43,234.46 105.88,238.29C105.33,242.12 104.75,245.94 104.18,249.77C103.62,253.6 103.02,257.42 102.49,261.25C101.96,265.07 101.44,268.9 101.02,272.73C100.61,276.55 100.24,280.38 100,284.21C99.77,288.03 99.62,291.86 99.61,295.69C99.6,299.52 99.71,303.35 99.92,307.17C100.13,311 100.49,314.83 100.9,318.65C101.31,322.48 101.84,326.3 102.4,330.12C102.96,333.95 103.6,337.78 104.24,341.6C104.88,345.43 105.57,349.25 106.23,353.08C106.9,356.91 107.57,360.73 108.23,364.56C108.89,368.39 109.54,372.21 110.19,376.04C110.83,379.87 111.48,383.69 112.1,387.52Q112.72,391.35 113.92,399L120.45,399" style="vector-effect: none; stroke-width: 2px; stroke: rgb(255, 0, 0); stroke-opacity: 1; fill: rgb(255, 0, 0); fill-opacity: 1;"/><path class="meanline" d="M102.81074523925781,258.99H120.45" style="fill: none; vector-effect: none; stroke-width: 10px; stroke-dasharray: 20px, 10px; stroke: rgb(0, 0, 0); stroke-opacity: 1;"/><g class="points"/></g><g class="trace violins" style="opacity: 0.7;"><path class="violin" d="M120.45,393.76L120.66,393.76Q120.69,391.06 120.71,389.71C120.72,388.36 120.74,387.01 120.75,385.66C120.76,384.31 120.78,382.96 120.79,381.61C120.81,380.26 120.82,378.91 120.84,377.56C120.86,376.21 120.87,374.86 120.89,373.51C120.91,372.16 120.93,370.81 120.95,369.46C120.97,368.11 121,366.76 121.02,365.41C121.04,364.06 121.06,362.71 121.08,361.36C121.1,360.01 121.12,358.66 121.14,357.31C121.15,355.96 121.16,354.61 121.17,353.26C121.18,351.91 121.18,350.56 121.18,349.21C121.18,347.86 121.18,346.51 121.18,345.16C121.18,343.81 121.17,342.46 121.17,341.11C121.17,339.76 121.16,338.41 121.16,337.06C121.16,335.71 121.16,334.36 121.16,333.01C121.16,331.66 121.16,330.31 121.16,328.96C121.16,327.61 121.16,326.26 121.16,324.91C121.16,323.56 121.15,322.21 121.14,320.86C121.13,319.51 121.13,318.15 121.12,316.8C121.11,315.45 121.1,314.1 121.09,312.75C121.08,311.4 121.07,310.05 121.07,308.7C121.07,307.35 121.07,306 121.07,304.65C121.07,303.3 121.08,301.95 121.09,300.6C121.1,299.25 121.11,297.9 121.12,296.55C121.13,295.2 121.15,293.85 121.16,292.5C121.17,291.15 121.18,289.8 121.19,288.45C121.2,287.1 121.21,285.75 121.22,284.4C121.23,283.05 121.24,281.7 121.25,280.35C121.26,279 121.27,277.65 121.28,276.3C121.29,274.95 121.3,273.6 121.31,272.25C121.32,270.9 121.33,269.55 121.34,268.2C121.35,266.85 121.36,265.5 121.37,264.15C121.38,262.8 121.38,261.45 121.38,260.1C121.38,258.75 121.37,257.4 121.37,256.05C121.37,254.7 121.36,253.35 121.36,252C121.35,250.65 121.35,249.3 121.34,247.95C121.34,246.6 121.33,245.25 121.33,243.9C121.33,242.55 121.32,241.2 121.32,239.85C121.32,238.5 121.32,237.15 121.32,235.8C121.32,234.45 121.33,233.1 121.34,231.75C121.35,230.4 121.36,229.05 121.37,227.7C121.38,226.35 121.39,224.99 121.41,223.64C121.42,222.29 121.44,220.94 121.46,219.59C121.47,218.24 121.49,216.89 121.5,215.54C121.51,214.19 121.53,212.84 121.53,211.49C121.53,210.14 121.52,208.79 121.52,207.44C121.51,206.09 121.51,204.74 121.5,203.39C121.49,202.04 121.47,200.69 121.46,199.34C121.44,197.99 121.43,196.64 121.41,195.29C121.4,193.94 121.38,192.59 121.37,191.24C121.36,189.89 121.34,188.54 121.33,187.19C121.32,185.84 121.32,184.49 121.32,183.14C121.32,181.79 121.32,180.44 121.33,179.09C121.34,177.74 121.35,176.39 121.36,175.04C121.37,173.69 121.39,172.34 121.41,170.99C121.43,169.64 121.44,168.29 121.46,166.94C121.48,165.59 121.5,164.24 121.52,162.89C121.54,161.54 121.56,160.19 121.58,158.84C121.6,157.49 121.62,156.14 121.64,154.79C121.66,153.44 121.69,152.09 121.71,150.74C121.74,149.39 121.76,148.04 121.79,146.69C121.82,145.34 121.86,143.99 121.9,142.64C121.94,141.29 121.98,139.94 122.02,138.59C122.06,137.24 122.11,135.89 122.16,134.54C122.21,133.19 122.27,131.83 122.32,130.48C122.37,129.13 122.42,127.78 122.48,126.43C122.54,125.08 122.6,123.73 122.66,122.38C122.73,121.03 122.8,119.68 122.87,118.33C122.94,116.98 123.01,115.63 123.09,114.28C123.17,112.93 123.26,111.58 123.35,110.23C123.44,108.88 123.54,107.53 123.64,106.18C123.74,104.83 123.85,103.48 123.96,102.13C124.07,100.78 124.17,99.43 124.28,98.08C124.39,96.73 124.51,95.38 124.62,94.03C124.74,92.68 124.84,91.33 124.97,89.98C125.1,88.63 125.23,87.28 125.38,85.93C125.53,84.58 125.69,83.23 125.89,81.88C126.09,80.53 126.3,79.18 126.56,77.83C126.82,76.48 127.12,75.12 127.46,73.78C127.8,72.42 128.19,71.07 128.62,69.73C129.05,68.37 129.53,67.02 130.05,65.68C130.57,64.32 131.15,62.97 131.75,61.63C132.35,60.27 133,58.93 133.66,57.58C134.32,56.23 135.03,54.88 135.71,53.53C136.39,52.18 137.11,50.84 137.75,49.48C138.39,48.14 139.04,46.79 139.56,45.43C140.07,44.09 140.55,42.75 140.84,41.38C141.12,40.04 141.32,38.67 141.3,37.32C141.28,35.97 141.07,34.6 140.69,33.27C140.3,31.89 139.67,30.54 138.96,29.22C138.21,27.83 137.24,26.5 136.26,25.17Q135.25,23.8 132.99,21.12L120.45,21.12" style="vector-effect: none; stroke-width: 2px; stroke: rgb(0, 128, 0); stroke-opacity: 1; fill: rgb(0, 128, 0); fill-opacity: 1;"/><path class="meanline" d="M125.84638214111328,82.18H120.45" style="fill: none; vector-effect: none; stroke-width: 10px; stroke-dasharray: 20px, 10px; stroke: rgb(0, 0, 0); stroke-opacity: 1;"/><g class="points"><path class="point" transform="translate(120.45,393.76)" d="M3,0A3,3 0 1,1 0,-3A3,3 0 0,1 3,0Z" style="opacity: 1; stroke-width: 0px; fill: rgb(0, 128, 0); fill-opacity: 1;"/><path class="point" transform="translate(120.45,389.63)" d="M3,0A3,3 0 1,1 0,-3A3,3 0 0,1 3,0Z" style="opacity: 1; stroke-width: 0px; fill: rgb(0, 128, 0); fill-opacity: 1;"/><path class="point" transform="translate(120.45,377.02)" d="M3,0A3,3 0 1,1 0,-3A3,3 0 0,1 3,0Z" style="opacity: 1; stroke-width: 0px; fill: rgb(0, 128, 0); fill-opacity: 1;"/><path class="point" transform="translate(120.45,374.74)" d="M3,0A3,3 0 1,1 0,-3A3,3 0 0,1 3,0Z" style="opacity: 1; stroke-width: 0px; fill: rgb(0, 128, 0); fill-opacity: 1;"/><path class="point" transform="translate(120.45,373.26)" d="M3,0A3,3 0 1,1 0,-3A3,3 0 0,1 3,0Z" style="opacity: 1; stroke-width: 0px; fill: rgb(0, 128, 0); fill-opacity: 1;"/><path class="point" transform="translate(120.45,360.03)" d="M3,0A3,3 0 1,1 0,-3A3,3 0 0,1 3,0Z" style="opacity: 1; stroke-width: 0px; fill: rgb(0, 128, 0); fill-opacity: 1;"/><path class="point" transform="translate(120.45,356.77)" d="M3,0A3,3 0 1,1 0,-3A3,3 0 0,1 3,0Z" style="opacity: 1; stroke-width: 0px; fill: rgb(0, 128, 0); fill-opacity: 1;"/><path class="point" transform="translate(120.45,355.94)" d="M3,0A3,3 0 1,1 0,-3A3,3 0 0,1 3,0Z" style="opacity: 1; stroke-width: 0px; fill: rgb(0, 128, 0); fill-opacity: 1;"/><path class="point" transform="translate(120.45,355.8)" d="M3,0A3,3 0 1,1 0,-3A3,3 0 0,1 3,0Z" style="opacity: 1; stroke-width: 0px; fill: rgb(0, 128, 0); fill-opacity: 1;"/><path class="point" transform="translate(120.45,354.77)" d="M3,0A3,3 0 1,1 0,-3A3,3 0 0,1 3,0Z" style="opacity: 1; stroke-width: 0px; fill: rgb(0, 128, 0); fill-opacity: 1;"/><path class="point" transform="translate(120.45,354.35)" d="M3,0A3,3 0 1,1 0,-3A3,3 0 0,1 3,0Z" style="opacity: 1; stroke-width: 0px; fill: rgb(0, 128, 0); fill-opacity: 1;"/><path class="point" transform="translate(120.45,347.15)" d="M3,0A3,3 0 1,1 0,-3A3,3 0 0,1 3,0Z" style="opacity: 1; stroke-width: 0px; fill: rgb(0, 128, 0); fill-opacity: 1;"/><path class="point" transform="translate(120.45,347.15)" d="M3,0A3,3 0 1,1 0,-3A3,3 0 0,1 3,0Z" style="opacity: 1; stroke-width: 0px; fill: rgb(0, 128, 0); fill-opacity: 1;"/><path class="point" transform="translate(120.45,341.03)" d="M3,0A3,3 0 1,1 0,-3A3,3 0 0,1 3,0Z" style="opacity: 1; stroke-width: 0px; fill: rgb(0, 128, 0); fill-opacity: 1;"/><path class="point" transform="translate(120.45,339.81)" d="M3,0A3,3 0 1,1 0,-3A3,3 0 0,1 3,0Z" style="opacity: 1; stroke-width: 0px; fill: rgb(0, 128, 0); fill-opacity: 1;"/><path class="point" transform="translate(120.45,333.68)" d="M3,0A3,3 0 1,1 0,-3A3,3 0 0,1 3,0Z" style="opacity: 1; stroke-width: 0px; fill: rgb(0, 128, 0); fill-opacity: 1;"/><path class="point" transform="translate(120.45,330.92)" d="M3,0A3,3 0 1,1 0,-3A3,3 0 0,1 3,0Z" style="opacity: 1; stroke-width: 0px; fill: rgb(0, 128, 0); fill-opacity: 1;"/><path class="point" transform="translate(120.45,325.7)" d="M3,0A3,3 0 1,1 0,-3A3,3 0 0,1 3,0Z" style="opacity: 1; stroke-width: 0px; fill: rgb(0, 128, 0); fill-opacity: 1;"/><path class="point" transform="translate(120.45,324.79)" d="M3,0A3,3 0 1,1 0,-3A3,3 0 0,1 3,0Z" style="opacity: 1; stroke-width: 0px; fill: rgb(0, 128, 0); fill-opacity: 1;"/><path class="point" transform="translate(120.45,323.74)" d="M3,0A3,3 0 1,1 0,-3A3,3 0 0,1 3,0Z" style="opacity: 1; stroke-width: 0px; fill: rgb(0, 128, 0); fill-opacity: 1;"/><path class="point" transform="translate(120.45,320.15)" d="M3,0A3,3 0 1,1 0,-3A3,3 0 0,1 3,0Z" style="opacity: 1; stroke-width: 0px; fill: rgb(0, 128, 0); fill-opacity: 1;"/><path class="point" transform="translate(120.45,318.34)" d="M3,0A3,3 0 1,1 0,-3A3,3 0 0,1 3,0Z" style="opacity: 1; stroke-width: 0px; fill: rgb(0, 128, 0); fill-opacity: 1;"/><path class="point" transform="translate(120.45,314.41)" d="M3,0A3,3 0 1,1 0,-3A3,3 0 0,1 3,0Z" style="opacity: 1; stroke-width: 0px; fill: rgb(0, 128, 0); fill-opacity: 1;"/><path class="point" transform="translate(120.45,311.89)" d="M3,0A3,3 0 1,1 0,-3A3,3 0 0,1 3,0Z" style="opacity: 1; stroke-width: 0px; fill: rgb(0, 128, 0); fill-opacity: 1;"/><path class="point" transform="translate(120.45,307.94)" d="M3,0A3,3 0 1,1 0,-3A3,3 0 0,1 3,0Z" style="opacity: 1; stroke-width: 0px; fill: rgb(0, 128, 0); fill-opacity: 1;"/><path class="point" transform="translate(120.45,298.01)" d="M3,0A3,3 0 1,1 0,-3A3,3 0 0,1 3,0Z" style="opacity: 1; stroke-width: 0px; fill: rgb(0, 128, 0); fill-opacity: 1;"/><path class="point" transform="translate(120.45,294.27)" d="M3,0A3,3 0 1,1 0,-3A3,3 0 0,1 3,0Z" style="opacity: 1; stroke-width: 0px; fill: rgb(0, 128, 0); fill-opacity: 1;"/><path class="point" transform="translate(120.45,292.51)" d="M3,0A3,3 0 1,1 0,-3A3,3 0 0,1 3,0Z" style="opacity: 1; stroke-width: 0px; fill: rgb(0, 128, 0); fill-opacity: 1;"/><path class="point" transform="translate(120.45,291.21)" d="M3,0A3,3 0 1,1 0,-3A3,3 0 0,1 3,0Z" style="opacity: 1; stroke-width: 0px; fill: rgb(0, 128, 0); fill-opacity: 1;"/><path class="point" transform="translate(120.45,289.96)" d="M3,0A3,3 0 1,1 0,-3A3,3 0 0,1 3,0Z" style="opacity: 1; stroke-width: 0px; fill: rgb(0, 128, 0); fill-opacity: 1;"/><path class="point" transform="translate(120.45,288.56)" d="M3,0A3,3 0 1,1 0,-3A3,3 0 0,1 3,0Z" style="opacity: 1; stroke-width: 0px; fill: rgb(0, 128, 0); fill-opacity: 1;"/><path class="point" transform="translate(120.45,282.55)" d="M3,0A3,3 0 1,1 0,-3A3,3 0 0,1 3,0Z" style="opacity: 1; stroke-width: 0px; fill: rgb(0, 128, 0); fill-opacity: 1;"/><path class="point" transform="translate(120.45,282.48)" d="M3,0A3,3 0 1,1 0,-3A3,3 0 0,1 3,0Z" style="opacity: 1; stroke-width: 0px; fill: rgb(0, 128, 0); fill-opacity: 1;"/><path class="point" transform="translate(120.45,277.55)" d="M3,0A3,3 0 1,1 0,-3A3,3 0 0,1 3,0Z" style="opacity: 1; stroke-width: 0px; fill: rgb(0, 128, 0); fill-opacity: 1;"/><path class="point" transform="translate(120.45,270.15)" d="M3,0A3,3 0 1,1 0,-3A3,3 0 0,1 3,0Z" style="opacity: 1; stroke-width: 0px; fill: rgb(0, 128, 0); fill-opacity: 1;"/><path class="point" transform="translate(120.45,269.06)" d="M3,0A3,3 0 1,1 0,-3A3,3 0 0,1 3,0Z" style="opacity: 1; stroke-width: 0px; fill: rgb(0, 128, 0); fill-opacity: 1;"/><path class="point" transform="translate(120.45,268.9)" d="M3,0A3,3 0 1,1 0,-3A3,3 0 0,1 3,0Z" style="opacity: 1; stroke-width: 0px; fill: rgb(0, 128, 0); fill-opacity: 1;"/><path class="point" transform="translate(120.45,268.5)" d="M3,0A3,3 0 1,1 0,-3A3,3 0 0,1 3,0Z" style="opacity: 1; stroke-width: 0px; fill: rgb(0, 128, 0); fill-opacity: 1;"/><path class="point" transform="translate(120.45,267.03)" d="M3,0A3,3 0 1,1 0,-3A3,3 0 0,1 3,0Z" style="opacity: 1; stroke-width: 0px; fill: rgb(0, 128, 0); fill-opacity: 1;"/><path class="point" transform="translate(120.45,261.85)" d="M3,0A3,3 0 1,1 0,-3A3,3 0 0,1 3,0Z" style="opacity: 1; stroke-width: 0px; fill: rgb(0, 128, 0); fill-opacity: 1;"/><path class="point" transform="translate(120.45,259.77)" d="M3,0A3,3 0 1,1 0,-3A3,3 0 0,1 3,0Z" style="opacity: 1; stroke-width: 0px; fill: rgb(0, 128, 0); fill-opacity: 1;"/><path class="point" transform="translate(120.45,258.3)" d="M3,0A3,3 0 1,1 0,-3A3,3 0 0,1 3,0Z" style="opacity: 1; stroke-width: 0px; fill: rgb(0, 128, 0); fill-opacity: 1;"/><path class="point" transform="translate(120.45,256.2)" d="M3,0A3,3 0 1,1 0,-3A3,3 0 0,1 3,0Z" style="opacity: 1; stroke-width: 0px; fill: rgb(0, 128, 0); fill-opacity: 1;"/><path class="point" transform="translate(120.45,254.31)" d="M3,0A3,3 0 1,1 0,-3A3,3 0 0,1 3,0Z" style="opacity: 1; stroke-width: 0px; fill: rgb(0, 128, 0); fill-opacity: 1;"/><path class="point" transform="translate(120.45,253.39)" d="M3,0A3,3 0 1,1 0,-3A3,3 0 0,1 3,0Z" style="opacity: 1; stroke-width: 0px; fill: rgb(0, 128, 0); fill-opacity: 1;"/><path class="point" transform="translate(120.45,248.95)" d="M3,0A3,3 0 1,1 0,-3A3,3 0 0,1 3,0Z" style="opacity: 1; stroke-width: 0px; fill: rgb(0, 128, 0); fill-opacity: 1;"/><path class="point" transform="translate(120.45,246.65)" d="M3,0A3,3 0 1,1 0,-3A3,3 0 0,1 3,0Z" style="opacity: 1; stroke-width: 0px; fill: rgb(0, 128, 0); fill-opacity: 1;"/><path class="point" transform="translate(120.45,241.63)" d="M3,0A3,3 0 1,1 0,-3A3,3 0 0,1 3,0Z" style="opacity: 1; stroke-width: 0px; fill: rgb(0, 128, 0); fill-opacity: 1;"/><path class="point" transform="translate(120.45,240.46)" d="M3,0A3,3 0 1,1 0,-3A3,3 0 0,1 3,0Z" style="opacity: 1; stroke-width: 0px; fill: rgb(0, 128, 0); fill-opacity: 1;"/><path class="point" transform="translate(120.45,237.65)" d="M3,0A3,3 0 1,1 0,-3A3,3 0 0,1 3,0Z" style="opacity: 1; stroke-width: 0px; fill: rgb(0, 128, 0); fill-opacity: 1;"/><path class="point" transform="translate(120.45,237.05)" d="M3,0A3,3 0 1,1 0,-3A3,3 0 0,1 3,0Z" style="opacity: 1; stroke-width: 0px; fill: rgb(0, 128, 0); fill-opacity: 1;"/><path class="point" transform="translate(120.45,232.4)" d="M3,0A3,3 0 1,1 0,-3A3,3 0 0,1 3,0Z" style="opacity: 1; stroke-width: 0px; fill: rgb(0, 128, 0); fill-opacity: 1;"/><path class="point" transform="translate(120.45,232.02)" d="M3,0A3,3 0 1,1 0,-3A3,3 0 0,1 3,0Z" style="opacity: 1; stroke-width: 0px; fill: rgb(0, 128, 0); fill-opacity: 1;"/><path class="point" transform="translate(120.45,231.1)" d="M3,0A3,3 0 1,1 0,-3A3,3 0 0,1 3,0Z" style="opacity: 1; stroke-width: 0px; fill: rgb(0, 128, 0); fill-opacity: 1;"/><path class="point" transform="translate(120.45,223.14)" d="M3,0A3,3 0 1,1 0,-3A3,3 0 0,1 3,0Z" style="opacity: 1; stroke-width: 0px; fill: rgb(0, 128, 0); fill-opacity: 1;"/><path class="point" transform="translate(120.45,221.29)" d="M3,0A3,3 0 1,1 0,-3A3,3 0 0,1 3,0Z" style="opacity: 1; stroke-width: 0px; fill: rgb(0, 128, 0); fill-opacity: 1;"/><path class="point" transform="translate(120.45,218.24)" d="M3,0A3,3 0 1,1 0,-3A3,3 0 0,1 3,0Z" style="opacity: 1; stroke-width: 0px; fill: rgb(0, 128, 0); fill-opacity: 1;"/><path class="point" transform="translate(120.45,214.39)" d="M3,0A3,3 0 1,1 0,-3A3,3 0 0,1 3,0Z" style="opacity: 1; stroke-width: 0px; fill: rgb(0, 128, 0); fill-opacity: 1;"/><path class="point" transform="translate(120.45,214.05)" d="M3,0A3,3 0 1,1 0,-3A3,3 0 0,1 3,0Z" style="opacity: 1; stroke-width: 0px; fill: rgb(0, 128, 0); fill-opacity: 1;"/><path class="point" transform="translate(120.45,213.41)" d="M3,0A3,3 0 1,1 0,-3A3,3 0 0,1 3,0Z" style="opacity: 1; stroke-width: 0px; fill: rgb(0, 128, 0); fill-opacity: 1;"/><path class="point" transform="translate(120.45,212.98)" d="M3,0A3,3 0 1,1 0,-3A3,3 0 0,1 3,0Z" style="opacity: 1; stroke-width: 0px; fill: rgb(0, 128, 0); fill-opacity: 1;"/><path class="point" transform="translate(120.45,212.86)" d="M3,0A3,3 0 1,1 0,-3A3,3 0 0,1 3,0Z" style="opacity: 1; stroke-width: 0px; fill: rgb(0, 128, 0); fill-opacity: 1;"/><path class="point" transform="translate(120.45,212.68)" d="M3,0A3,3 0 1,1 0,-3A3,3 0 0,1 3,0Z" style="opacity: 1; stroke-width: 0px; fill: rgb(0, 128, 0); fill-opacity: 1;"/><path class="point" transform="translate(120.45,210.34)" d="M3,0A3,3 0 1,1 0,-3A3,3 0 0,1 3,0Z" style="opacity: 1; stroke-width: 0px; fill: rgb(0, 128, 0); fill-opacity: 1;"/><path class="point" transform="translate(120.45,205.36)" d="M3,0A3,3 0 1,1 0,-3A3,3 0 0,1 3,0Z" style="opacity: 1; stroke-width: 0px; fill: rgb(0, 128, 0); fill-opacity: 1;"/><path class="point" transform="translate(120.45,202.38)" d="M3,0A3,3 0 1,1 0,-3A3,3 0 0,1 3,0Z" style="opacity: 1; stroke-width: 0px; fill: rgb(0, 128, 0); fill-opacity: 1;"/><path class="point" transform="translate(120.45,201.99)" d="M3,0A3,3 0 1,1 0,-3A3,3 0 0,1 3,0Z" style="opacity: 1; stroke-width: 0px; fill: rgb(0, 128, 0); fill-opacity: 1;"/><path class="point" transform="translate(120.45,200.6)" d="M3,0A3,3 0 1,1 0,-3A3,3 0 0,1 3,0Z" style="opacity: 1; stroke-width: 0px; fill: rgb(0, 128, 0); fill-opacity: 1;"/><path class="point" transform="translate(120.45,194.41)" d="M3,0A3,3 0 1,1 0,-3A3,3 0 0,1 3,0Z" style="opacity: 1; stroke-width: 0px; fill: rgb(0, 128, 0); fill-opacity: 1;"/><path class="point" transform="translate(120.45,194.41)" d="M3,0A3,3 0 1,1 0,-3A3,3 0 0,1 3,0Z" style="opacity: 1; stroke-width: 0px; fill: rgb(0, 128, 0); fill-opacity: 1;"/><path class="point" transform="translate(120.45,192.28)" d="M3,0A3,3 0 1,1 0,-3A3,3 0 0,1 3,0Z" style="opacity: 1; stroke-width: 0px; fill: rgb(0, 128, 0); fill-opacity: 1;"/><path class="point" transform="translate(120.45,190.72)" d="M3,0A3,3 0 1,1 0,-3A3,3 0 0,1 3,0Z" style="opacity: 1; stroke-width: 0px; fill: rgb(0, 128, 0); fill-opacity: 1;"/><path class="point" transform="translate(120.45,189.85)" d="M3,0A3,3 0 1,1 0,-3A3,3 0 0,1 3,0Z" style="opacity: 1; stroke-width: 0px; fill: rgb(0, 128, 0); fill-opacity: 1;"/><path class="point" transform="translate(120.45,188.59)" d="M3,0A3,3 0 1,1 0,-3A3,3 0 0,1 3,0Z" style="opacity: 1; stroke-width: 0px; fill: rgb(0, 128, 0); fill-opacity: 1;"/><path class="point" transform="translate(120.45,177.86)" d="M3,0A3,3 0 1,1 0,-3A3,3 0 0,1 3,0Z" style="opacity: 1; stroke-width: 0px; fill: rgb(0, 128, 0); fill-opacity: 1;"/><path class="point" transform="translate(120.45,177.28)" d="M3,0A3,3 0 1,1 0,-3A3,3 0 0,1 3,0Z" style="opacity: 1; stroke-width: 0px; fill: rgb(0, 128, 0); fill-opacity: 1;"/><path class="point" transform="translate(120.45,175.39)" d="M3,0A3,3 0 1,1 0,-3A3,3 0 0,1 3,0Z" style="opacity: 1; stroke-width: 0px; fill: rgb(0, 128, 0); fill-opacity: 1;"/></g></g><g class="trace violins" style="opacity: 0.7;"><path class="violin" d="M203.85,24.91L184.91,24.91Q183.47,35.18 183.15,40.32C182.83,45.45 182.8,50.6 183,55.73C183.2,60.87 183.73,66.01 184.37,71.14C185.01,76.29 185.93,81.42 186.84,86.55C187.75,91.69 188.84,96.82 189.83,101.96C190.82,107.1 191.87,112.23 192.8,117.37C193.73,122.5 194.62,127.64 195.41,132.78C196.19,137.91 196.9,143.06 197.51,148.2C198.12,153.33 198.63,158.47 199.07,163.61C199.51,168.74 199.87,173.88 200.17,179.02C200.47,184.15 200.69,189.29 200.86,194.43C201.03,199.57 201.14,204.7 201.21,209.84C201.28,214.98 201.29,220.11 201.26,225.25C201.23,230.39 201.15,235.52 201.04,240.66C200.93,245.8 200.76,250.93 200.58,256.07C200.4,261.21 200.18,266.35 199.95,271.49C199.72,276.63 199.46,281.76 199.22,286.9C198.98,292.04 198.72,297.17 198.5,302.31C198.28,307.45 198.07,312.58 197.91,317.72C197.75,322.86 197.62,327.99 197.56,333.13C197.5,338.27 197.48,343.4 197.54,348.54C197.6,353.68 197.73,358.81 197.9,363.95C198.08,369.09 198.32,374.22 198.59,379.36Q198.86,384.5 199.51,394.78L203.85,394.78" style="vector-effect: none; stroke-width: 2px; stroke: rgb(255, 0, 0); stroke-opacity: 1; fill: rgb(255, 0, 0); fill-opacity: 1;"/><path class="meanline" d="M194.7447509765625,128.59H203.85" style="fill: none; vector-effect: none; stroke-width: 10px; stroke-dasharray: 20px, 10px; stroke: rgb(0, 0, 0); stroke-opacity: 1;"/><g class="points"/></g><g class="trace violins" style="opacity: 0.7;"><path class="violin" d="M203.85,398.21L204.75,398.21Q204.91,391.76 204.99,388.54C205.07,385.32 205.15,382.09 205.23,378.87C205.31,375.65 205.4,372.42 205.49,369.2C205.58,365.98 205.68,362.75 205.78,359.53C205.89,356.31 206,353.08 206.12,349.86C206.24,346.64 206.38,343.42 206.52,340.2C206.66,336.98 206.81,333.75 206.97,330.53C207.13,327.31 207.3,324.08 207.47,320.86C207.64,317.64 207.82,314.41 208,311.19C208.18,307.97 208.35,304.74 208.53,301.52C208.7,298.3 208.88,295.07 209.05,291.85C209.21,288.63 209.38,285.41 209.52,282.19C209.66,278.97 209.8,275.74 209.91,272.52C210.02,269.3 210.1,266.07 210.17,262.85C210.24,259.63 210.29,256.4 210.31,253.18C210.33,249.96 210.33,246.73 210.31,243.51C210.29,240.29 210.26,237.06 210.21,233.84C210.17,230.62 210.1,227.4 210.04,224.18C209.98,220.96 209.9,217.73 209.83,214.51C209.76,211.29 209.69,208.06 209.62,204.84C209.55,201.62 209.49,198.39 209.43,195.17C209.37,191.95 209.32,188.72 209.28,185.5C209.24,182.28 209.2,179.05 209.17,175.83C209.14,172.61 209.13,169.39 209.12,166.17C209.11,162.95 209.12,159.72 209.14,156.5C209.16,153.28 209.19,150.05 209.26,146.83C209.33,143.61 209.4,140.38 209.54,137.16C209.68,133.94 209.84,130.71 210.08,127.49C210.32,124.26 210.59,121.04 210.96,117.82C211.33,114.59 211.77,111.37 212.29,108.15C212.82,104.92 213.43,101.7 214.11,98.49C214.79,95.26 215.57,92.04 216.37,88.82C217.17,85.59 218.08,82.37 218.93,79.15C219.78,75.93 220.71,72.71 221.48,69.48C222.25,66.27 223.02,63.05 223.56,59.81C224.09,56.6 224.54,53.37 224.69,50.14C224.84,46.92 224.79,43.69 224.48,40.48C224.17,37.25 223.57,34.01 222.82,30.81Q222.06,27.56 219.94,21.14L203.85,21.14" style="vector-effect: none; stroke-width: 2px; stroke: rgb(0, 128, 0); stroke-opacity: 1; fill: rgb(0, 128, 0); fill-opacity: 1;"/><path class="meanline" d="M210.18174743652344,126.15H203.85" style="fill: none; vector-effect: none; stroke-width: 10px; stroke-dasharray: 20px, 10px; stroke: rgb(0, 0, 0); stroke-opacity: 1;"/><g class="points"/></g><g class="trace violins" style="opacity: 0.7;"><path class="violin" d="M287.24,29.66L273.33,29.66Q271.06,37.1 270.12,40.84C269.19,44.55 268.32,48.29 267.71,52.03C267.1,55.74 266.67,59.48 266.45,63.21C266.23,66.93 266.25,70.67 266.39,74.39C266.53,78.12 266.89,81.86 267.28,85.58C267.67,89.31 268.22,93.04 268.73,96.76C269.24,100.49 269.81,104.21 270.33,107.94C270.85,111.67 271.37,115.4 271.83,119.13C272.29,122.86 272.71,126.58 273.11,130.31C273.5,134.04 273.86,137.77 274.2,141.5C274.54,145.23 274.85,148.95 275.16,152.68C275.47,156.41 275.77,160.13 276.06,163.86C276.36,167.59 276.65,171.32 276.93,175.05C277.21,178.78 277.49,182.5 277.75,186.23C278.01,189.96 278.27,193.68 278.49,197.41C278.71,201.14 278.91,204.87 279.08,208.6C279.25,212.33 279.39,216.05 279.52,219.78C279.64,223.51 279.74,227.23 279.83,230.96C279.92,234.69 279.98,238.42 280.05,242.15C280.12,245.88 280.18,249.6 280.25,253.33C280.32,257.06 280.39,260.78 280.47,264.51C280.55,268.24 280.63,271.97 280.72,275.7C280.81,279.43 280.9,283.15 281,286.88C281.1,290.61 281.19,294.34 281.3,298.07C281.4,301.8 281.52,305.52 281.63,309.25C281.75,312.98 281.86,316.7 281.99,320.43C282.12,324.16 282.25,327.89 282.39,331.62C282.53,335.35 282.68,339.07 282.83,342.8C282.98,346.53 283.13,350.25 283.28,353.98C283.43,357.71 283.59,361.44 283.75,365.17C283.91,368.9 284.06,372.62 284.22,376.35C284.38,380.08 284.55,383.8 284.71,387.53Q284.87,391.26 285.2,398.72L287.24,398.72" style="vector-effect: none; stroke-width: 2px; stroke: rgb(255, 0, 0); stroke-opacity: 1; fill: rgb(255, 0, 0); fill-opacity: 1;"/><path class="meanline" d="M274.6929016113281,147.11H287.24" style="fill: none; vector-effect: none; stroke-width: 10px; stroke-dasharray: 20px, 10px; stroke: rgb(0, 0, 0); stroke-opacity: 1;"/><g class="points"/></g><g class="trace violins" style="opacity: 0.7;"><path class="violin" d="M287.24,397.15L288.52,397.15Q288.78,389.77 288.92,386.08C289.06,382.39 289.21,378.71 289.38,375.02C289.55,371.33 289.73,367.65 289.93,363.96C290.13,360.27 290.35,356.58 290.6,352.89C290.85,349.2 291.12,345.52 291.41,341.83C291.71,338.14 292.04,334.46 292.37,330.77C292.7,327.08 293.06,323.39 293.39,319.7C293.72,316.01 294.07,312.33 294.37,308.64C294.66,304.95 294.95,301.27 295.16,297.58C295.37,293.89 295.54,290.21 295.64,286.52C295.74,282.83 295.77,279.14 295.75,275.45C295.73,271.76 295.63,268.08 295.51,264.39C295.39,260.7 295.22,257.02 295.05,253.33C294.87,249.64 294.66,245.95 294.46,242.26C294.26,238.57 294.05,234.89 293.86,231.2C293.67,227.51 293.48,223.83 293.3,220.14C293.12,216.45 292.95,212.76 292.78,209.07C292.61,205.38 292.45,201.7 292.3,198.01C292.15,194.32 292,190.64 291.88,186.95C291.76,183.26 291.64,179.57 291.56,175.88C291.48,172.19 291.41,168.51 291.39,164.82C291.37,161.13 291.37,157.45 291.43,153.76C291.49,150.07 291.58,146.38 291.73,142.69C291.88,139 292.07,135.31 292.33,131.63C292.59,127.94 292.89,124.25 293.28,120.57C293.67,116.88 294.12,113.19 294.67,109.51C295.22,105.81 295.84,102.12 296.56,98.44C297.28,94.74 298.11,91.06 298.98,87.38C299.85,83.69 300.86,80.01 301.8,76.32C302.74,72.63 303.78,68.95 304.64,65.25C305.49,61.57 306.37,57.89 306.94,54.19C307.51,50.52 307.96,46.82 308.08,43.13C308.2,39.44 308.05,35.73 307.64,32.06Q307.23,28.36 305.59,21L287.24,21" style="vector-effect: none; stroke-width: 2px; stroke: rgb(0, 128, 0); stroke-opacity: 1; fill: rgb(0, 128, 0); fill-opacity: 1;"/><path class="meanline" d="M292.2136535644531,133.35H287.24" style="fill: none; vector-effect: none; stroke-width: 10px; stroke-dasharray: 20px, 10px; stroke: rgb(0, 0, 0); stroke-opacity: 1;"/><g class="points"/></g></g></g></g><path class="xlines-above crisp" d="M81,520.5H407.3M81,99.5H407.3" style="fill: none; stroke-width: 1px; stroke: rgb(0, 0, 0); stroke-opacity: 1;"/><path class="ylines-above crisp" d="M81.5,100V520M406.8,100V520" style="fill: none; stroke-width: 1px; stroke: rgb(0, 0, 0); stroke-opacity: 1;"/><g class="overlines-above"/><g class="xaxislayer-above"><path class="xtick ticks crisp" d="M0,521v5" transform="translate(119.06,0)" style="stroke: rgb(68, 68, 68); stroke-opacity: 1; stroke-width: 1px;"/><path class="xtick ticks crisp" d="M0,521v5" transform="translate(202.45,0)" style="stroke: rgb(68, 68, 68); stroke-opacity: 1; stroke-width: 1px;"/><path class="xtick ticks crisp" d="M0,521v5" transform="translate(285.85,0)" style="stroke: rgb(68, 68, 68); stroke-opacity: 1; stroke-width: 1px;"/><path class="xtick ticks crisp" d="M0,521v5" transform="translate(369.24,0)" style="stroke: rgb(68, 68, 68); stroke-opacity: 1; stroke-width: 1px;"/><g class="xtick"><text text-anchor="middle" x="0" y="550" transform="translate(119.06,0)" style="font-family: 'Open Sans', verdana, arial, sans-serif; font-size: 20px; fill: rgb(42, 63, 95); fill-opacity: 1; white-space: pre; opacity: 1;">Clinton</text></g><g class="xtick"><text text-anchor="middle" x="0" y="550" transform="translate(202.45,0)" style="font-family: 'Open Sans', verdana, arial, sans-serif; font-size: 20px; fill: rgb(42, 63, 95); fill-opacity: 1; white-space: pre; opacity: 1;">Yelp</text></g><g class="xtick"><text text-anchor="middle" x="0" y="550" transform="translate(285.85,0)" style="font-family: 'Open Sans', verdana, arial, sans-serif; font-size: 20px; fill: rgb(42, 63, 95); fill-opacity: 1; white-space: pre; opacity: 1;">Enron</text></g><g class="xtick"><text text-anchor="middle" x="0" y="550" transform="translate(369.24,0)" style="font-family: 'Open Sans', verdana, arial, sans-serif; font-size: 20px; fill: rgb(42, 63, 95); fill-opacity: 1; white-space: pre; opacity: 1;">Yahoo</text></g></g><g class="yaxislayer-above"><path class="ytick ticks crisp" d="M81,0h-5" transform="translate(0,499.19)" style="stroke: rgb(68, 68, 68); stroke-opacity: 1; stroke-width: 1px;"/><path class="ytick ticks crisp" d="M81,0h-5" transform="translate(0,422.71)" style="stroke: rgb(68, 68, 68); stroke-opacity: 1; stroke-width: 1px;"/><path class="ytick ticks crisp" d="M81,0h-5" transform="translate(0,346.22)" style="stroke: rgb(68, 68, 68); stroke-opacity: 1; stroke-width: 1px;"/><path class="ytick ticks crisp" d="M81,0h-5" transform="translate(0,269.73)" style="stroke: rgb(68, 68, 68); stroke-opacity: 1; stroke-width: 1px;"/><path class="ytick ticks crisp" d="M81,0h-5" transform="translate(0,193.25)" style="stroke: rgb(68, 68, 68); stroke-opacity: 1; stroke-width: 1px;"/><path class="ytick ticks crisp" d="M81,0h-5" transform="translate(0,116.76)" style="stroke: rgb(68, 68, 68); stroke-opacity: 1; stroke-width: 1px;"/><g class="ytick"><text text-anchor="end" x="72" y="7" transform="translate(0,499.19)" style="font-family: 'Open Sans', verdana, arial, sans-serif; font-size: 20px; fill: rgb(42, 63, 95); fill-opacity: 1; white-space: pre; opacity: 1;">0.5</text></g><g class="ytick"><text text-anchor="end" x="72" y="7" style="font-family: 'Open Sans', verdana, arial, sans-serif; font-size: 20px; fill: rgb(42, 63, 95); fill-opacity: 1; white-space: pre; opacity: 1;" transform="translate(0,422.71)">0.6</text></g><g class="ytick"><text text-anchor="end" x="72" y="7" style="font-family: 'Open Sans', verdana, arial, sans-serif; font-size: 20px; fill: rgb(42, 63, 95); fill-opacity: 1; white-space: pre; opacity: 1;" transform="translate(0,346.22)">0.7</text></g><g class="ytick"><text text-anchor="end" x="72" y="7" style="font-family: 'Open Sans', verdana, arial, sans-serif; font-size: 20px; fill: rgb(42, 63, 95); fill-opacity: 1; white-space: pre; opacity: 1;" transform="translate(0,269.73)">0.8</text></g><g class="ytick"><text text-anchor="end" x="72" y="7" style="font-family: 'Open Sans', verdana, arial, sans-serif; font-size: 20px; fill: rgb(42, 63, 95); fill-opacity: 1; white-space: pre; opacity: 1;" transform="translate(0,193.25)">0.9</text></g><g class="ytick"><text text-anchor="end" x="72" y="7" style="font-family: 'Open Sans', verdana, arial, sans-serif; font-size: 20px; fill: rgb(42, 63, 95); fill-opacity: 1; white-space: pre; opacity: 1;" transform="translate(0,116.76)">1</text></g></g><g class="overaxes-above"/></g><g class="subplot x2y2"><g class="layer-subplot"><g class="shapelayer"/><g class="imagelayer"/></g><g class="minor-gridlayer"><g class="x2"/><g class="y2"/></g><g class="gridlayer"><g class="x2"><path class="x2grid crisp" transform="translate(497.40999999999997,0)" d="M0,100v420" style="stroke: rgb(211, 211, 211); stroke-opacity: 1; stroke-width: 1px;"/><path class="x2grid crisp" transform="translate(580.8,0)" d="M0,100v420" style="stroke: rgb(211, 211, 211); stroke-opacity: 1; stroke-width: 1px;"/><path class="x2grid crisp" transform="translate(664.1999999999999,0)" d="M0,100v420" style="stroke: rgb(211, 211, 211); stroke-opacity: 1; stroke-width: 1px;"/><path class="x2grid crisp" transform="translate(747.5899999999999,0)" d="M0,100v420" style="stroke: rgb(211, 211, 211); stroke-opacity: 1; stroke-width: 1px;"/></g><g class="y2"><path class="y2grid crisp" transform="translate(0,499.19)" d="M460.34999999999997,0h324.29999999999995" style="stroke: rgb(211, 211, 211); stroke-opacity: 1; stroke-width: 1px;"/><path class="y2grid crisp" transform="translate(0,422.71)" d="M460.34999999999997,0h324.29999999999995" style="stroke: rgb(211, 211, 211); stroke-opacity: 1; stroke-width: 1px;"/><path class="y2grid crisp" transform="translate(0,346.22)" d="M460.34999999999997,0h324.29999999999995" style="stroke: rgb(211, 211, 211); stroke-opacity: 1; stroke-width: 1px;"/><path class="y2grid crisp" transform="translate(0,269.73)" d="M460.34999999999997,0h324.29999999999995" style="stroke: rgb(211, 211, 211); stroke-opacity: 1; stroke-width: 1px;"/><path class="y2grid crisp" transform="translate(0,193.25)" d="M460.34999999999997,0h324.29999999999995" style="stroke: rgb(211, 211, 211); stroke-opacity: 1; stroke-width: 1px;"/><path class="y2grid crisp" transform="translate(0,116.76)" d="M460.34999999999997,0h324.29999999999995" style="stroke: rgb(211, 211, 211); stroke-opacity: 1; stroke-width: 1px;"/></g></g><g class="zerolinelayer"/><g class="layer-between"><g class="shapelayer"/><g class="imagelayer"/></g><path class="xlines-below"/><path class="ylines-below"/><g class="overlines-below"/><g class="xaxislayer-below"/><g class="yaxislayer-below"/><g class="overaxes-below"/><g class="overplot"><g class="x2y2" transform="translate(460.34999999999997,100)" clip-path="url(#clip1152ddx2y2plot)"><g class="violinlayer mlayer"><g class="trace violins" style="opacity: 0.7;"><path class="violin" d="M37.06,57.48L28.13,57.48Q26.69,66.59 26.13,71.16C25.57,75.71 25.07,80.28 24.77,84.84C24.47,89.4 24.31,93.96 24.31,98.52C24.31,103.08 24.51,107.64 24.79,112.2C25.07,116.76 25.52,121.32 25.98,125.88C26.44,130.44 27.03,135 27.57,139.56C28.11,144.12 28.71,148.69 29.23,153.25C29.75,157.81 30.26,162.37 30.71,166.93C31.16,171.49 31.56,176.05 31.91,180.61C32.26,185.17 32.56,189.73 32.81,194.29C33.06,198.85 33.26,203.41 33.43,207.97C33.6,212.53 33.73,217.09 33.81,221.65C33.89,226.21 33.94,230.77 33.91,235.33C33.88,239.89 33.82,244.45 33.65,249.01C33.48,253.57 33.25,258.14 32.87,262.7C32.49,267.27 32.01,271.83 31.36,276.38C30.71,280.95 29.9,285.51 28.97,290.06C28.03,294.63 26.89,299.19 25.75,303.74C24.6,308.31 23.27,312.85 22.1,317.42C20.93,321.97 19.66,326.52 18.73,331.1C17.81,335.64 16.97,340.21 16.55,344.78C16.13,349.33 15.99,353.91 16.21,358.46C16.43,363.03 17.08,367.61 17.9,372.15Q18.73,376.73 21.16,385.83L37.06,385.83" style="vector-effect: none; stroke-width: 2px; stroke: rgb(255, 0, 0); stroke-opacity: 1; fill: rgb(255, 0, 0); fill-opacity: 1;"/><path class="meanline" d="M33.671485900878906,248.41H37.06" style="fill: none; vector-effect: none; stroke-width: 10px; stroke-dasharray: 20px, 10px; stroke: rgb(0, 0, 0); stroke-opacity: 1;"/><g class="points"/></g><g class="trace violins" style="opacity: 0.7;"><path class="violin" d="M37.06,395.33L38.41,395.33Q38.89,387.96 39.19,384.28C39.49,380.6 39.82,376.92 40.19,373.24C40.56,369.56 40.98,365.87 41.39,362.19C41.8,358.51 42.25,354.82 42.67,351.14C43.09,347.46 43.52,343.77 43.9,340.09C44.28,336.41 44.65,332.73 44.94,329.05C45.23,325.37 45.49,321.68 45.66,318C45.83,314.32 45.95,310.63 45.97,306.95C45.99,303.27 45.94,299.59 45.81,295.91C45.68,292.23 45.46,288.54 45.19,284.86C44.92,281.17 44.57,277.49 44.2,273.81C43.83,270.12 43.4,266.44 42.98,262.76C42.56,259.08 42.1,255.4 41.69,251.72C41.28,248.04 40.86,244.36 40.5,240.67C40.14,236.99 39.81,233.3 39.54,229.62C39.27,225.94 39.05,222.26 38.88,218.58C38.71,214.9 38.59,211.21 38.53,207.53C38.47,203.85 38.45,200.16 38.49,196.48C38.53,192.8 38.61,189.11 38.75,185.43C38.89,181.75 39.07,178.07 39.32,174.39C39.57,170.71 39.87,167.02 40.26,163.34C40.65,159.65 41.11,155.97 41.68,152.29C42.25,148.6 42.91,144.92 43.67,141.25C44.44,137.56 45.32,133.87 46.27,130.2C47.22,126.51 48.31,122.83 49.37,119.15C50.43,115.46 51.61,111.79 52.64,108.1C53.67,104.43 54.74,100.76 55.55,97.06C56.35,93.39 57.08,89.71 57.47,86.01C57.86,82.34 58.04,78.64 57.91,74.96C57.78,71.27 57.34,67.58 56.7,63.92C56.06,60.22 55.08,56.54 54.06,52.87Q53.03,49.17 50.57,41.82L37.06,41.82" style="vector-effect: none; stroke-width: 2px; stroke: rgb(0, 128, 0); stroke-opacity: 1; fill: rgb(0, 128, 0); fill-opacity: 1;"/><path class="meanline" d="M41.121131896972656,156.15H37.06" style="fill: none; vector-effect: none; stroke-width: 10px; stroke-dasharray: 20px, 10px; stroke: rgb(0, 0, 0); stroke-opacity: 1;"/><g class="points"/></g><g class="trace violins" style="opacity: 0.7;"><path class="violin" d="M120.45,40.79L108.96,40.79Q106.62,47.73 105.56,51.22C104.5,54.69 103.43,58.16 102.59,61.65C101.75,65.11 101.01,68.59 100.51,72.08C100.02,75.54 99.71,79.03 99.61,82.51C99.51,85.99 99.64,89.48 99.88,92.95C100.12,96.43 100.58,99.91 101.05,103.38C101.52,106.86 102.14,110.33 102.71,113.81C103.28,117.29 103.92,120.76 104.48,124.24C105.04,127.71 105.59,131.19 106.08,134.67C106.57,138.14 107,141.62 107.4,145.1C107.8,148.57 108.14,152.05 108.46,155.53C108.78,159.01 109.05,162.48 109.33,165.96C109.61,169.44 109.86,172.92 110.12,176.4C110.37,179.88 110.62,183.35 110.86,186.83C111.1,190.31 111.35,193.78 111.57,197.26C111.79,200.74 112.02,204.21 112.2,207.69C112.38,211.17 112.55,214.64 112.66,218.12C112.77,221.6 112.85,225.07 112.87,228.55C112.89,232.03 112.86,235.5 112.79,238.98C112.72,242.46 112.59,245.94 112.45,249.42C112.31,252.9 112.11,256.37 111.94,259.85C111.77,263.33 111.57,266.8 111.42,270.28C111.27,273.76 111.13,277.23 111.06,280.71C110.99,284.19 110.96,287.66 111.01,291.14C111.06,294.62 111.18,298.09 111.35,301.57C111.53,305.05 111.77,308.53 112.06,312C112.35,315.48 112.71,318.95 113.07,322.43C113.43,325.91 113.84,329.39 114.23,332.87C114.62,336.35 115.02,339.82 115.39,343.3C115.76,346.78 116.11,350.25 116.43,353.73C116.75,357.21 117.04,360.68 117.3,364.16C117.56,367.64 117.78,371.11 117.99,374.59C118.19,378.07 118.37,381.54 118.53,385.02Q118.69,388.5 118.97,395.45L120.45,395.45" style="vector-effect: none; stroke-width: 2px; stroke: rgb(255, 0, 0); stroke-opacity: 1; fill: rgb(255, 0, 0); fill-opacity: 1;"/><path class="meanline" d="M109.1792984008789,164.08H120.45" style="fill: none; vector-effect: none; stroke-width: 10px; stroke-dasharray: 20px, 10px; stroke: rgb(0, 0, 0); stroke-opacity: 1;"/><g class="points"/></g><g class="trace violins" style="opacity: 0.7;"><path class="violin" d="M120.45,392.55L128.32,392.55Q130.26,383.92 131.13,379.59C132,375.28 132.91,370.97 133.54,366.64C134.17,362.33 134.7,358.01 134.93,353.68C135.16,349.37 135.15,345.04 134.91,340.73C134.67,336.4 134.14,332.08 133.51,327.77C132.88,323.44 131.99,319.12 131.14,314.81C130.29,310.49 129.29,306.18 128.42,301.86C127.55,297.54 126.67,293.23 125.93,288.9C125.19,284.59 124.53,280.27 124,275.94C123.47,271.63 123.06,267.31 122.73,262.99C122.4,258.67 122.2,254.35 122.04,250.03C121.89,245.71 121.82,241.39 121.8,237.07C121.78,232.75 121.82,228.44 121.9,224.12C121.98,219.8 122.11,215.48 122.28,211.16C122.45,206.84 122.66,202.53 122.94,198.21C123.22,193.89 123.54,189.57 123.94,185.25C124.34,180.93 124.8,176.6 125.35,172.29C125.9,167.97 126.54,163.65 127.26,159.34C127.98,155.01 128.81,150.69 129.69,146.38C130.58,142.05 131.58,137.74 132.58,133.42C133.58,129.1 134.69,124.79 135.68,120.47C136.67,116.16 137.71,111.84 138.53,107.51C139.34,103.2 140.12,98.88 140.58,94.55C141.04,90.24 141.32,85.92 141.3,81.6C141.28,77.28 140.96,72.94 140.43,68.64C139.89,64.31 139.02,59.99 138.07,55.69Q137.11,51.35 134.7,42.73L120.45,42.73" style="vector-effect: none; stroke-width: 2px; stroke: rgb(0, 128, 0); stroke-opacity: 1; fill: rgb(0, 128, 0); fill-opacity: 1;"/><path class="meanline" d="M123.88602447509766,185.84H120.45" style="fill: none; vector-effect: none; stroke-width: 10px; stroke-dasharray: 20px, 10px; stroke: rgb(0, 0, 0); stroke-opacity: 1;"/><g class="points"/></g><g class="trace violins" style="opacity: 0.7;"><path class="violin" d="M203.85,48.17L195.85,48.17Q194.44,55.44 193.81,59.08C193.18,62.72 192.56,66.36 192.06,70C191.56,73.63 191.13,77.27 190.82,80.91C190.51,84.54 190.3,88.18 190.19,91.82C190.08,95.46 190.09,99.09 190.18,102.73C190.27,106.37 190.47,110.01 190.72,113.64C190.97,117.28 191.31,120.91 191.66,124.55C192.02,128.19 192.44,131.83 192.85,135.47C193.25,139.11 193.69,142.74 194.09,146.38C194.48,150.02 194.88,153.65 195.22,157.29C195.56,160.92 195.87,164.56 196.12,168.2C196.37,171.84 196.58,175.47 196.73,179.11C196.87,182.75 196.97,186.38 196.99,190.02C197.01,193.66 196.98,197.29 196.85,200.93C196.72,204.57 196.52,208.21 196.22,211.85C195.91,215.49 195.52,219.13 195.02,222.76C194.52,226.4 193.91,230.04 193.23,233.67C192.55,237.31 191.76,240.95 190.96,244.58C190.16,248.22 189.27,251.85 188.45,255.49C187.64,259.12 186.78,262.75 186.07,266.4C185.36,270.03 184.69,273.67 184.2,277.32C183.71,280.95 183.32,284.59 183.12,288.23C182.92,291.86 182.89,295.51 183,299.14C183.11,302.78 183.41,306.42 183.81,310.05C184.21,313.69 184.78,317.33 185.41,320.96C186.04,324.6 186.81,328.24 187.59,331.87C188.37,335.51 189.25,339.14 190.11,342.78C190.97,346.42 191.88,350.06 192.74,353.7C193.6,357.34 194.48,360.97 195.28,364.61C196.08,368.24 196.86,371.88 197.56,375.52Q198.26,379.15 199.49,386.43L203.85,386.43" style="vector-effect: none; stroke-width: 2px; stroke: rgb(255, 0, 0); stroke-opacity: 1; fill: rgb(255, 0, 0); fill-opacity: 1;"/><path class="meanline" d="M195.3482208251953,220.25H203.85" style="fill: none; vector-effect: none; stroke-width: 10px; stroke-dasharray: 20px, 10px; stroke: rgb(0, 0, 0); stroke-opacity: 1;"/><g class="points"/></g><g class="trace violins" style="opacity: 0.7;"><path class="violin" d="M203.85,390.36L213.03,390.36Q215.56,382.43 216.8,378.46C218.04,374.49 219.38,370.54 220.46,366.55C221.53,362.6 222.57,358.64 223.28,354.65C223.98,350.7 224.48,346.72 224.69,342.74C224.9,338.78 224.81,334.8 224.54,330.84C224.27,326.86 223.69,322.89 223.07,318.93C222.44,314.95 221.6,310.99 220.79,307.03C219.98,303.06 219.07,299.09 218.22,295.12C217.37,291.15 216.5,287.19 215.69,283.22C214.89,279.25 214.11,275.28 213.39,271.31C212.67,267.35 211.99,263.38 211.37,259.41C210.75,255.45 210.18,251.47 209.69,247.5C209.2,243.54 208.76,239.57 208.42,235.6C208.08,231.63 207.81,227.66 207.65,223.69C207.49,219.72 207.41,215.76 207.44,211.79C207.47,207.82 207.61,203.85 207.85,199.88C208.09,195.91 208.44,191.94 208.86,187.98C209.29,184.01 209.81,180.03 210.4,176.07C210.99,172.1 211.68,168.13 212.38,164.17C213.08,160.2 213.86,156.23 214.61,152.26C215.36,148.29 216.15,144.33 216.88,140.36C217.6,136.39 218.34,132.42 218.96,128.45C219.58,124.49 220.17,120.52 220.61,116.55C221.05,112.59 221.41,108.61 221.6,104.64C221.79,100.68 221.86,96.71 221.75,92.74C221.64,88.77 221.38,84.79 220.96,80.83C220.54,76.85 219.93,72.89 219.24,68.93C218.55,64.95 217.68,60.99 216.8,57.03Q215.92,53.05 213.97,45.12L203.85,45.12" style="vector-effect: none; stroke-width: 2px; stroke: rgb(0, 128, 0); stroke-opacity: 1; fill: rgb(0, 128, 0); fill-opacity: 1;"/><path class="meanline" d="M207.50669860839844,219.28H203.85" style="fill: none; vector-effect: none; stroke-width: 10px; stroke-dasharray: 20px, 10px; stroke: rgb(0, 0, 0); stroke-opacity: 1;"/><g class="points"/></g><g class="trace violins" style="opacity: 0.7;"><path class="violin" d="M287.24,47.16L278.33,47.16Q276.85,55.94 276.2,60.33C275.56,64.72 274.94,69.1 274.46,73.5C273.98,77.88 273.59,82.28 273.34,86.67C273.09,91.05 272.96,95.44 272.95,99.83C272.94,104.22 273.06,108.61 273.26,113C273.46,117.39 273.8,121.78 274.17,126.17C274.55,130.56 275.02,134.95 275.51,139.34C276,143.73 276.55,148.12 277.09,152.51C277.63,156.9 278.2,161.29 278.75,165.68C279.29,170.07 279.85,174.46 280.36,178.85C280.87,183.24 281.37,187.62 281.81,192.01C282.25,196.4 282.67,200.79 283.02,205.18C283.37,209.57 283.68,213.96 283.91,218.35C284.14,222.74 284.32,227.13 284.4,231.52C284.48,235.91 284.49,240.3 284.37,244.69C284.25,249.08 284.03,253.48 283.65,257.86C283.27,262.26 282.76,266.65 282.09,271.03C281.41,275.43 280.56,279.82 279.59,284.19C278.62,288.59 277.44,292.98 276.27,297.36C275.09,301.76 273.73,306.13 272.54,310.53C271.35,314.91 270.06,319.29 269.11,323.7C268.17,328.07 267.3,332.46 266.85,336.87C266.4,341.24 266.21,345.66 266.39,350.04C266.57,354.44 267.15,358.84 267.91,363.21Q268.68,367.62 271.01,376.37L287.24,376.37" style="vector-effect: none; stroke-width: 2px; stroke: rgb(255, 0, 0); stroke-opacity: 1; fill: rgb(255, 0, 0); fill-opacity: 1;"/><path class="meanline" d="M284.3929443359375,231.16H287.24" style="fill: none; vector-effect: none; stroke-width: 10px; stroke-dasharray: 20px, 10px; stroke: rgb(0, 0, 0); stroke-opacity: 1;"/><g class="points"/></g><g class="trace violins" style="opacity: 0.7;"><path class="violin" d="M287.24,397.88L289.43,397.88Q290.07,390.49 290.42,386.79C290.77,383.09 291.15,379.39 291.53,375.69C291.9,371.99 292.29,368.3 292.67,364.6C293.05,360.9 293.43,357.2 293.82,353.5C294.21,349.8 294.6,346.1 295.01,342.4C295.43,338.7 295.86,335.01 296.31,331.31C296.76,327.61 297.25,323.91 297.73,320.21C298.21,316.51 298.73,312.82 299.18,309.12C299.62,305.42 300.08,301.72 300.4,298.02C300.72,294.33 301,290.63 301.1,286.93C301.2,283.23 301.18,279.53 301.02,275.83C300.86,272.13 300.53,268.43 300.12,264.74C299.7,261.03 299.12,257.33 298.53,253.64C297.93,249.94 297.22,246.25 296.55,242.55C295.88,238.85 295.16,235.15 294.53,231.45C293.9,227.76 293.29,224.06 292.79,220.36C292.29,216.67 291.86,212.96 291.53,209.26C291.21,205.56 290.98,201.86 290.84,198.16C290.7,194.46 290.67,190.77 290.71,187.07C290.75,183.37 290.88,179.67 291.07,175.97C291.27,172.27 291.55,168.57 291.88,164.88C292.22,161.18 292.61,157.47 293.08,153.78C293.55,150.08 294.09,146.38 294.7,142.69C295.31,138.99 296,135.28 296.75,131.59C297.5,127.89 298.33,124.19 299.19,120.5C300.05,116.8 301,113.1 301.9,109.4C302.8,105.7 303.77,102.02 304.59,98.31C305.41,94.62 306.24,90.92 306.82,87.21C307.4,83.52 307.88,79.82 308.08,76.12C308.28,72.43 308.27,68.71 308,65.02C307.73,61.31 307.16,57.6 306.43,53.92Q305.7,50.2 303.6,42.83L287.24,42.83" style="vector-effect: none; stroke-width: 2px; stroke: rgb(0, 128, 0); stroke-opacity: 1; fill: rgb(0, 128, 0); fill-opacity: 1;"/><path class="meanline" d="M291.2762145996094,172.56H287.24" style="fill: none; vector-effect: none; stroke-width: 10px; stroke-dasharray: 20px, 10px; stroke: rgb(0, 0, 0); stroke-opacity: 1;"/><g class="points"/></g></g></g></g><path class="xlines-above crisp" d="M459.34999999999997,520.5H785.6499999999999M459.34999999999997,99.5H785.6499999999999" style="fill: none; stroke-width: 1px; stroke: rgb(0, 0, 0); stroke-opacity: 1;"/><path class="ylines-above crisp" d="M459.84999999999997,100V520M785.1499999999999,100V520" style="fill: none; stroke-width: 1px; stroke: rgb(0, 0, 0); stroke-opacity: 1;"/><g class="overlines-above"/><g class="xaxislayer-above"><path class="x2tick ticks crisp" d="M0,521v5" transform="translate(497.40999999999997,0)" style="stroke: rgb(68, 68, 68); stroke-opacity: 1; stroke-width: 1px;"/><path class="x2tick ticks crisp" d="M0,521v5" transform="translate(580.8,0)" style="stroke: rgb(68, 68, 68); stroke-opacity: 1; stroke-width: 1px;"/><path class="x2tick ticks crisp" d="M0,521v5" transform="translate(664.1999999999999,0)" style="stroke: rgb(68, 68, 68); stroke-opacity: 1; stroke-width: 1px;"/><path class="x2tick ticks crisp" d="M0,521v5" transform="translate(747.5899999999999,0)" style="stroke: rgb(68, 68, 68); stroke-opacity: 1; stroke-width: 1px;"/><g class="x2tick"><text text-anchor="middle" x="0" y="550" transform="translate(497.40999999999997,0)" style="font-family: 'Open Sans', verdana, arial, sans-serif; font-size: 20px; fill: rgb(42, 63, 95); fill-opacity: 1; white-space: pre; opacity: 1;">Clinton</text></g><g class="x2tick"><text text-anchor="middle" x="0" y="550" transform="translate(580.8,0)" style="font-family: 'Open Sans', verdana, arial, sans-serif; font-size: 20px; fill: rgb(42, 63, 95); fill-opacity: 1; white-space: pre; opacity: 1;">Yelp</text></g><g class="x2tick"><text text-anchor="middle" x="0" y="550" transform="translate(664.1999999999999,0)" style="font-family: 'Open Sans', verdana, arial, sans-serif; font-size: 20px; fill: rgb(42, 63, 95); fill-opacity: 1; white-space: pre; opacity: 1;">Enron</text></g><g class="x2tick"><text text-anchor="middle" x="0" y="550" transform="translate(747.5899999999999,0)" style="font-family: 'Open Sans', verdana, arial, sans-serif; font-size: 20px; fill: rgb(42, 63, 95); fill-opacity: 1; white-space: pre; opacity: 1;">Yahoo</text></g></g><g class="yaxislayer-above"><path class="y2tick ticks crisp" d="M459.34999999999997,0h-5" transform="translate(0,499.19)" style="stroke: rgb(68, 68, 68); stroke-opacity: 1; stroke-width: 1px;"/><path class="y2tick ticks crisp" d="M459.34999999999997,0h-5" transform="translate(0,422.71)" style="stroke: rgb(68, 68, 68); stroke-opacity: 1; stroke-width: 1px;"/><path class="y2tick ticks crisp" d="M459.34999999999997,0h-5" transform="translate(0,346.22)" style="stroke: rgb(68, 68, 68); stroke-opacity: 1; stroke-width: 1px;"/><path class="y2tick ticks crisp" d="M459.34999999999997,0h-5" transform="translate(0,269.73)" style="stroke: rgb(68, 68, 68); stroke-opacity: 1; stroke-width: 1px;"/><path class="y2tick ticks crisp" d="M459.34999999999997,0h-5" transform="translate(0,193.25)" style="stroke: rgb(68, 68, 68); stroke-opacity: 1; stroke-width: 1px;"/><path class="y2tick ticks crisp" d="M459.34999999999997,0h-5" transform="translate(0,116.76)" style="stroke: rgb(68, 68, 68); stroke-opacity: 1; stroke-width: 1px;"/></g><g class="overaxes-above"/></g><g class="subplot x3y3"><g class="layer-subplot"><g class="shapelayer"/><g class="imagelayer"/></g><g class="minor-gridlayer"><g class="x3"/><g class="y3"/></g><g class="gridlayer"><g class="x3"><path class="x3grid crisp" transform="translate(875.76,0)" d="M0,100v420" style="stroke: rgb(211, 211, 211); stroke-opacity: 1; stroke-width: 1px;"/><path class="x3grid crisp" transform="translate(959.15,0)" d="M0,100v420" style="stroke: rgb(211, 211, 211); stroke-opacity: 1; stroke-width: 1px;"/><path class="x3grid crisp" transform="translate(1042.55,0)" d="M0,100v420" style="stroke: rgb(211, 211, 211); stroke-opacity: 1; stroke-width: 1px;"/><path class="x3grid crisp" transform="translate(1125.94,0)" d="M0,100v420" style="stroke: rgb(211, 211, 211); stroke-opacity: 1; stroke-width: 1px;"/></g><g class="y3"><path class="y3grid crisp" transform="translate(0,499.19)" d="M838.6999999999999,0h324.30000000000007" style="stroke: rgb(211, 211, 211); stroke-opacity: 1; stroke-width: 1px;"/><path class="y3grid crisp" transform="translate(0,422.71)" d="M838.6999999999999,0h324.30000000000007" style="stroke: rgb(211, 211, 211); stroke-opacity: 1; stroke-width: 1px;"/><path class="y3grid crisp" transform="translate(0,346.22)" d="M838.6999999999999,0h324.30000000000007" style="stroke: rgb(211, 211, 211); stroke-opacity: 1; stroke-width: 1px;"/><path class="y3grid crisp" transform="translate(0,269.73)" d="M838.6999999999999,0h324.30000000000007" style="stroke: rgb(211, 211, 211); stroke-opacity: 1; stroke-width: 1px;"/><path class="y3grid crisp" transform="translate(0,193.25)" d="M838.6999999999999,0h324.30000000000007" style="stroke: rgb(211, 211, 211); stroke-opacity: 1; stroke-width: 1px;"/><path class="y3grid crisp" transform="translate(0,116.76)" d="M838.6999999999999,0h324.30000000000007" style="stroke: rgb(211, 211, 211); stroke-opacity: 1; stroke-width: 1px;"/></g></g><g class="zerolinelayer"/><g class="layer-between"><g class="shapelayer"/><g class="imagelayer"/></g><path class="xlines-below"/><path class="ylines-below"/><g class="overlines-below"/><g class="xaxislayer-below"/><g class="yaxislayer-below"/><g class="overaxes-below"/><g class="overplot"><g class="x3y3" transform="translate(838.6999999999999,100)" clip-path="url(#clip1152ddx3y3plot)"><g class="violinlayer mlayer"><g class="trace violins" style="opacity: 0.7;"><path class="violin" d="M37.06,324.08L31.6,324.08Q29.93,325.33 29.03,325.93C28.08,326.56 27.03,327.16 26.02,327.77C24.99,328.39 23.9,328.99 22.9,329.62C21.95,330.22 20.95,330.8 20.18,331.46C19.5,332.04 18.78,332.64 18.46,333.31C18.18,333.88 18.05,334.56 18.19,335.15C18.35,335.8 18.94,336.43 19.52,337C20.21,337.68 21.22,338.25 22.17,338.84C23.21,339.49 24.42,340.08 25.56,340.69C26.7,341.31 27.91,341.9 29,342.53C30.03,343.13 31.06,343.73 31.94,344.38C32.74,344.97 33.5,345.57 34.1,346.22C34.64,346.81 35.11,347.43 35.45,348.07C35.76,348.66 35.99,349.29 36.11,349.91C36.23,350.52 36.25,351.15 36.17,351.76C36.09,352.38 35.91,353.01 35.63,353.6C35.33,354.24 34.89,354.87 34.36,355.45C33.77,356.11 33.01,356.71 32.19,357.29C31.27,357.95 30.18,358.55 29.07,359.14C27.86,359.78 26.5,360.37 25.2,360.98C23.88,361.6 22.46,362.19 21.2,362.83C20.04,363.42 18.78,363.99 17.91,364.68C17.2,365.24 16.41,365.86 16.22,366.52C16.06,367.1 16.25,367.81 16.59,368.37Q17.02,369.07 18.93,370.21L37.06,370.21" style="vector-effect: none; stroke-width: 2px; stroke: rgb(255, 0, 0); stroke-opacity: 1; fill: rgb(255, 0, 0); fill-opacity: 1;"/><path class="meanline" d="M36.20184326171875,350.59H37.06" style="fill: none; vector-effect: none; stroke-width: 10px; stroke-dasharray: 20px, 10px; stroke: rgb(0, 0, 0); stroke-opacity: 1;"/><g class="points"/></g><g class="trace violins" style="opacity: 0.7;"><path class="violin" d="M37.06,370.47L50.17,370.47Q52.08,369.51 52.78,368.94C53.36,368.47 54,367.97 54.17,367.42C54.32,366.94 54.21,366.36 53.96,365.89C53.65,365.32 52.9,364.84 52.22,364.37C51.43,363.82 50.41,363.34 49.45,362.84C48.45,362.32 47.35,361.84 46.35,361.32C45.4,360.82 44.42,360.33 43.6,359.79C42.88,359.31 42.15,358.83 41.68,358.27C41.28,357.8 40.93,357.27 40.83,356.74C40.74,356.25 40.85,355.7 41.05,355.22C41.27,354.68 41.74,354.17 42.2,353.69C42.71,353.15 43.38,352.67 44.01,352.17C44.67,351.65 45.42,351.16 46.09,350.64C46.74,350.14 47.44,349.65 47.99,349.11C48.48,348.63 48.98,348.13 49.26,347.59C49.51,347.11 49.66,346.57 49.67,346.06C49.68,345.55 49.48,345.04 49.3,344.54C49.11,344.02 48.76,343.53 48.54,343.01C48.33,342.51 48.05,342 48,341.49C47.95,340.99 48.02,340.44 48.25,339.96C48.51,339.41 49.04,338.91 49.58,338.44C50.21,337.89 51.06,337.4 51.86,336.91C52.71,336.39 53.69,335.91 54.53,335.39C55.33,334.9 56.21,334.43 56.8,333.86C57.29,333.39 57.83,332.87 57.91,332.34C57.99,331.85 57.75,331.27 57.41,330.81C56.98,330.23 56.12,329.76 55.32,329.29C54.38,328.73 53.21,328.26 52.09,327.76Q50.91,327.24 48.4,326.24L37.06,326.24" style="vector-effect: none; stroke-width: 2px; stroke: rgb(0, 128, 0); stroke-opacity: 1; fill: rgb(0, 128, 0); fill-opacity: 1;"/><path class="meanline" d="M49.45127868652344,347.16H37.06" style="fill: none; vector-effect: none; stroke-width: 10px; stroke-dasharray: 20px, 10px; stroke: rgb(0, 0, 0); stroke-opacity: 1;"/><g class="points"/></g><g class="trace violins" style="opacity: 0.7;"><path class="violin" d="M120.45,326.72L108.85,326.72Q106.42,327.57 105.28,328.01C104.2,328.43 103.08,328.83 102.17,329.3C101.4,329.7 100.55,330.09 100.13,330.6C99.81,330.99 99.54,331.48 99.61,331.89C99.68,332.34 100.21,332.79 100.69,333.18C101.29,333.68 102.21,334.07 103.05,334.48C103.98,334.93 105.06,335.34 106.04,335.77C107,336.2 108.03,336.6 108.88,337.06C109.63,337.47 110.41,337.87 110.92,338.36C111.33,338.75 111.7,339.2 111.8,339.65C111.89,340.06 111.75,340.53 111.57,340.94C111.37,341.4 110.94,341.81 110.59,342.24C110.24,342.68 109.78,343.08 109.47,343.53C109.19,343.94 108.88,344.38 108.8,344.82C108.73,345.24 108.8,345.71 108.98,346.12C109.19,346.58 109.65,347 110.1,347.41C110.61,347.88 111.29,348.29 111.93,348.71C112.61,349.15 113.36,349.57 114.06,350C114.75,350.43 115.47,350.84 116.1,351.29C116.69,351.71 117.27,352.14 117.75,352.59C118.19,353 118.59,353.43 118.9,353.88C119.19,354.29 119.42,354.73 119.58,355.17C119.73,355.59 119.81,356.04 119.84,356.47C119.87,356.9 119.83,357.34 119.74,357.76C119.64,358.2 119.48,358.63 119.26,359.05C119.02,359.5 118.7,359.94 118.34,360.35C117.95,360.8 117.47,361.23 116.96,361.64C116.41,362.09 115.78,362.51 115.16,362.93C114.52,363.37 113.81,363.79 113.16,364.23C112.53,364.66 111.86,365.06 111.32,365.52C110.84,365.93 110.33,366.34 110.06,366.81C109.83,367.21 109.67,367.69 109.71,368.11C109.75,368.55 110.04,369 110.35,369.4Q110.71,369.87 111.82,370.69L120.45,370.69" style="vector-effect: none; stroke-width: 2px; stroke: rgb(255, 0, 0); stroke-opacity: 1; fill: rgb(255, 0, 0); fill-opacity: 1;"/><path class="meanline" d="M109.22703552246094,343.89H120.45" style="fill: none; vector-effect: none; stroke-width: 10px; stroke-dasharray: 20px, 10px; stroke: rgb(0, 0, 0); stroke-opacity: 1;"/><g class="points"/></g><g class="trace violins" style="opacity: 0.7;"><path class="violin" d="M120.45,382L126.79,382Q128.08,380.71 128.72,380.06C129.36,379.42 130.01,378.78 130.65,378.13C131.28,377.49 131.91,376.85 132.52,376.2C133.12,375.56 133.73,374.92 134.3,374.27C134.85,373.63 135.42,372.99 135.88,372.33C136.32,371.7 136.77,371.07 137.01,370.4C137.24,369.78 137.4,369.1 137.33,368.47C137.25,367.82 136.94,367.15 136.53,366.54C136.07,365.84 135.32,365.22 134.59,364.6C133.78,363.92 132.78,363.3 131.83,362.67C130.85,362.02 129.78,361.39 128.79,360.74C127.83,360.11 126.85,359.48 125.99,358.81C125.19,358.19 124.42,357.56 123.79,356.88C123.21,356.26 122.7,355.61 122.31,354.94C121.95,354.32 121.67,353.67 121.5,353.01C121.33,352.38 121.25,351.72 121.26,351.08C121.27,350.44 121.38,349.78 121.58,349.15C121.79,348.49 122.12,347.83 122.54,347.21C123,346.53 123.61,345.89 124.29,345.28C125.06,344.59 125.99,343.97 126.96,343.35C128.03,342.67 129.25,342.05 130.45,341.42C131.71,340.76 133.09,340.13 134.37,339.48C135.61,338.84 136.93,338.24 138.01,337.55C138.96,336.94 139.99,336.35 140.54,335.62C140.98,335.03 141.36,334.32 141.3,333.69C141.24,333.03 140.67,332.34 140.11,331.75C139.42,331.03 138.33,330.43 137.31,329.82Q136.18,329.14 133.59,327.89L120.45,327.89" style="vector-effect: none; stroke-width: 2px; stroke: rgb(0, 128, 0); stroke-opacity: 1; fill: rgb(0, 128, 0); fill-opacity: 1;"/><path class="meanline" d="M121.383056640625,352.5H120.45" style="fill: none; vector-effect: none; stroke-width: 10px; stroke-dasharray: 20px, 10px; stroke: rgb(0, 0, 0); stroke-opacity: 1;"/><g class="points"/></g><g class="trace violins" style="opacity: 0.7;"><path class="violin" d="M203.85,327.58L198.29,327.58Q197.17,328.82 196.65,329.45C196.14,330.07 195.64,330.69 195.19,331.33C194.76,331.94 194.39,332.57 194.01,333.2C193.64,333.82 193.33,334.46 192.94,335.08C192.55,335.71 192.16,336.34 191.67,336.95C191.15,337.6 190.54,338.22 189.89,338.83C189.19,339.48 188.38,340.08 187.6,340.7C186.81,341.33 185.92,341.92 185.2,342.57C184.54,343.17 183.79,343.77 183.43,344.45C183.12,345.03 182.89,345.72 183,346.32C183.12,346.97 183.69,347.63 184.27,348.2C184.97,348.9 186.05,349.47 187.07,350.07C188.2,350.73 189.53,351.33 190.78,351.95C192.04,352.58 193.38,353.18 194.6,353.82C195.75,354.43 196.9,355.04 197.9,355.7C198.8,356.3 199.66,356.9 200.36,357.57C200.98,358.16 201.52,358.79 201.92,359.45C202.29,360.05 202.56,360.68 202.72,361.32C202.87,361.93 202.93,362.58 202.89,363.2C202.85,363.83 202.7,364.46 202.48,365.07C202.25,365.71 201.91,366.35 201.5,366.95C201.06,367.6 200.51,368.22 199.92,368.82C199.29,369.47 198.54,370.08 197.81,370.7C197.05,371.34 196.21,371.94 195.45,372.57C194.7,373.19 193.9,373.79 193.28,374.45C192.72,375.05 192.13,375.66 191.84,376.32C191.58,376.92 191.44,377.59 191.53,378.2C191.62,378.84 192.01,379.48 192.43,380.07Q192.9,380.74 194.29,381.95L203.85,381.95" style="vector-effect: none; stroke-width: 2px; stroke: rgb(255, 0, 0); stroke-opacity: 1; fill: rgb(255, 0, 0); fill-opacity: 1;"/><path class="meanline" d="M193.22259521484375,353.13H203.85" style="fill: none; vector-effect: none; stroke-width: 10px; stroke-dasharray: 20px, 10px; stroke: rgb(0, 0, 0); stroke-opacity: 1;"/><g class="points"/></g><g class="trace violins" style="opacity: 0.7;"><path class="violin" d="M203.85,382.5L217.48,382.5Q219.65,381.29 220.53,380.62C221.3,380.03 222.09,379.43 222.54,378.74C222.92,378.16 223.19,377.49 223.19,376.86C223.19,376.23 222.89,375.57 222.55,374.97C222.18,374.31 221.56,373.7 220.99,373.09C220.38,372.44 219.66,371.83 218.98,371.21C218.29,370.58 217.56,369.96 216.86,369.33C216.16,368.7 215.46,368.08 214.77,367.45C214.08,366.82 213.39,366.19 212.72,365.56C212.06,364.94 211.39,364.32 210.76,363.68C210.15,363.06 209.53,362.45 209.01,361.8C208.52,361.19 208.04,360.57 207.71,359.92C207.4,359.31 207.14,358.68 207.07,358.04C207,357.42 207.08,356.76 207.27,356.15C207.48,355.5 207.88,354.87 208.33,354.27C208.82,353.61 209.49,353 210.16,352.39C210.87,351.74 211.69,351.13 212.48,350.51C213.29,349.88 214.16,349.26 214.97,348.63C215.77,348.01 216.56,347.38 217.31,346.74C218.03,346.12 218.73,345.5 219.39,344.86C220.03,344.24 220.63,343.62 221.21,342.98C221.77,342.36 222.33,341.74 222.82,341.1C223.29,340.49 223.79,339.87 224.1,339.22C224.39,338.61 224.68,337.96 224.69,337.33C224.7,336.7 224.52,336.04 224.19,335.45C223.8,334.77 223.07,334.16 222.34,333.57Q221.49,332.89 219.33,331.69L203.85,331.69" style="vector-effect: none; stroke-width: 2px; stroke: rgb(0, 128, 0); stroke-opacity: 1; fill: rgb(0, 128, 0); fill-opacity: 1;"/><path class="meanline" d="M207.34506225585938,355.94H203.85" style="fill: none; vector-effect: none; stroke-width: 10px; stroke-dasharray: 20px, 10px; stroke: rgb(0, 0, 0); stroke-opacity: 1;"/><g class="points"/></g><g class="trace violins" style="opacity: 0.7;"><path class="violin" d="M287.24,331.46L271.68,331.46Q269.95,332.84 269.49,333.63C269.09,334.3 268.82,335.09 268.89,335.8C268.96,336.54 269.47,337.29 269.98,337.97C270.57,338.75 271.5,339.44 272.36,340.14C273.28,340.89 274.36,341.59 275.35,342.32C276.34,343.04 277.37,343.75 278.29,344.49C279.17,345.2 280.03,345.91 280.77,346.66C281.46,347.36 282.1,348.08 282.64,348.83C283.15,349.53 283.58,350.26 283.93,351C284.26,351.71 284.52,352.44 284.7,353.17C284.87,353.89 284.98,354.62 285,355.35C285.02,356.07 284.96,356.8 284.82,357.52C284.68,358.25 284.45,358.98 284.15,359.69C283.84,360.43 283.42,361.16 282.95,361.86C282.45,362.61 281.85,363.33 281.19,364.03C280.48,364.78 279.68,365.51 278.83,366.21C277.93,366.96 276.93,367.67 275.93,368.38C274.89,369.12 273.75,369.82 272.68,370.55C271.63,371.27 270.5,371.96 269.56,372.72C268.7,373.41 267.79,374.1 267.25,374.89C266.79,375.57 266.38,376.34 266.39,377.06C266.4,377.79 266.83,378.57 267.33,379.24C267.93,380.04 268.95,380.72 269.92,381.41Q271,382.18 273.55,383.58L287.24,383.58" style="vector-effect: none; stroke-width: 2px; stroke: rgb(255, 0, 0); stroke-opacity: 1; fill: rgb(255, 0, 0); fill-opacity: 1;"/><path class="meanline" d="M284.7617492675781,357.8H287.24" style="fill: none; vector-effect: none; stroke-width: 10px; stroke-dasharray: 20px, 10px; stroke: rgb(0, 0, 0); stroke-opacity: 1;"/><g class="points"/></g><g class="trace violins" style="opacity: 0.7;"><path class="violin" d="M287.24,382.01L298.37,382.01Q300.29,380.78 301.05,380.1C301.71,379.5 302.42,378.88 302.72,378.19C302.98,377.59 303.06,376.89 302.9,376.28C302.72,375.61 302.12,374.96 301.54,374.36C300.87,373.67 299.92,373.07 299.03,372.45C298.09,371.79 297.01,371.18 296.02,370.54C295.05,369.91 294.03,369.29 293.14,368.63C292.31,368.01 291.5,367.38 290.84,366.71C290.24,366.1 289.69,365.47 289.29,364.8C288.92,364.19 288.63,363.54 288.47,362.89C288.31,362.27 288.25,361.61 288.31,360.98C288.37,360.34 288.54,359.69 288.82,359.07C289.12,358.4 289.58,357.76 290.11,357.15C290.71,356.47 291.47,355.84 292.28,355.24C293.19,354.56 294.27,353.95 295.35,353.33C296.51,352.67 297.81,352.06 299.05,351.42C300.3,350.78 301.64,350.16 302.82,349.5C303.91,348.88 305.06,348.29 305.91,347.59C306.64,347 307.36,346.37 307.71,345.68C308.02,345.08 308.12,344.4 308.08,343.77C308.03,343.12 307.68,342.48 307.42,341.85C307.15,341.2 306.73,340.59 306.48,339.94C306.24,339.31 306.01,338.67 305.94,338.03C305.87,337.4 305.96,336.75 306.05,336.12C306.14,335.48 306.41,334.85 306.51,334.21C306.61,333.57 306.76,332.92 306.67,332.29C306.57,331.64 306.31,330.98 305.91,330.38C305.45,329.69 304.72,329.07 303.98,328.47C303.14,327.79 302.08,327.18 301.07,326.56Q300,325.9 297.71,324.64L287.24,324.64" style="vector-effect: none; stroke-width: 2px; stroke: rgb(0, 128, 0); stroke-opacity: 1; fill: rgb(0, 128, 0); fill-opacity: 1;"/><path class="meanline" d="M302.4163818359375,349.72H287.24" style="fill: none; vector-effect: none; stroke-width: 10px; stroke-dasharray: 20px, 10px; stroke: rgb(0, 0, 0); stroke-opacity: 1;"/><g class="points"/></g></g></g></g><path class="xlines-above crisp" d="M837.6999999999999,520.5H1164M837.6999999999999,99.5H1164" style="fill: none; stroke-width: 1px; stroke: rgb(0, 0, 0); stroke-opacity: 1;"/><path class="ylines-above crisp" d="M838.1999999999999,100V520M1163.5,100V520" style="fill: none; stroke-width: 1px; stroke: rgb(0, 0, 0); stroke-opacity: 1;"/><g class="overlines-above"/><g class="xaxislayer-above"><path class="x3tick ticks crisp" d="M0,521v5" transform="translate(875.76,0)" style="stroke: rgb(68, 68, 68); stroke-opacity: 1; stroke-width: 1px;"/><path class="x3tick ticks crisp" d="M0,521v5" transform="translate(959.15,0)" style="stroke: rgb(68, 68, 68); stroke-opacity: 1; stroke-width: 1px;"/><path class="x3tick ticks crisp" d="M0,521v5" transform="translate(1042.55,0)" style="stroke: rgb(68, 68, 68); stroke-opacity: 1; stroke-width: 1px;"/><path class="x3tick ticks crisp" d="M0,521v5" transform="translate(1125.94,0)" style="stroke: rgb(68, 68, 68); stroke-opacity: 1; stroke-width: 1px;"/><g class="x3tick"><text text-anchor="middle" x="0" y="550" transform="translate(875.76,0)" style="font-family: 'Open Sans', verdana, arial, sans-serif; font-size: 20px; fill: rgb(42, 63, 95); fill-opacity: 1; white-space: pre; opacity: 1;">Clinton</text></g><g class="x3tick"><text text-anchor="middle" x="0" y="550" transform="translate(959.15,0)" style="font-family: 'Open Sans', verdana, arial, sans-serif; font-size: 20px; fill: rgb(42, 63, 95); fill-opacity: 1; white-space: pre; opacity: 1;">Yelp</text></g><g class="x3tick"><text text-anchor="middle" x="0" y="550" transform="translate(1042.55,0)" style="font-family: 'Open Sans', verdana, arial, sans-serif; font-size: 20px; fill: rgb(42, 63, 95); fill-opacity: 1; white-space: pre; opacity: 1;">Enron</text></g><g class="x3tick"><text text-anchor="middle" x="0" y="550" transform="translate(1125.94,0)" style="font-family: 'Open Sans', verdana, arial, sans-serif; font-size: 20px; fill: rgb(42, 63, 95); fill-opacity: 1; white-space: pre; opacity: 1;">Yahoo</text></g></g><g class="yaxislayer-above"><path class="y3tick ticks crisp" d="M837.6999999999999,0h-5" transform="translate(0,499.19)" style="stroke: rgb(68, 68, 68); stroke-opacity: 1; stroke-width: 1px;"/><path class="y3tick ticks crisp" d="M837.6999999999999,0h-5" transform="translate(0,422.71)" style="stroke: rgb(68, 68, 68); stroke-opacity: 1; stroke-width: 1px;"/><path class="y3tick ticks crisp" d="M837.6999999999999,0h-5" transform="translate(0,346.22)" style="stroke: rgb(68, 68, 68); stroke-opacity: 1; stroke-width: 1px;"/><path class="y3tick ticks crisp" d="M837.6999999999999,0h-5" transform="translate(0,269.73)" style="stroke: rgb(68, 68, 68); stroke-opacity: 1; stroke-width: 1px;"/><path class="y3tick ticks crisp" d="M837.6999999999999,0h-5" transform="translate(0,193.25)" style="stroke: rgb(68, 68, 68); stroke-opacity: 1; stroke-width: 1px;"/><path class="y3tick ticks crisp" d="M837.6999999999999,0h-5" transform="translate(0,116.76)" style="stroke: rgb(68, 68, 68); stroke-opacity: 1; stroke-width: 1px;"/></g><g class="overaxes-above"/></g></g><g class="polarlayer"/><g class="smithlayer"/><g class="ternarylayer"/><g class="geolayer"/><g class="funnelarealayer"/><g class="pielayer"/><g class="iciclelayer"/><g class="treemaplayer"/><g class="sunburstlayer"/><g class="glimages"/><defs id="topdefs-1152dd"><g class="clips"/><clipPath id="legend1152dd"><rect width="203" height="68" x="0" y="0"/></clipPath></defs><g class="layer-above"><g class="imagelayer"/><g class="shapelayer"/></g><g class="infolayer"><g class="legend" pointer-events="all" transform="translate(1184.6200000000001,100)"><rect class="bg" shape-rendering="crispEdges" width="203" height="68" x="0" y="0" style="stroke: rgb(68, 68, 68); stroke-opacity: 1; fill: rgb(255, 255, 255); fill-opacity: 1; stroke-width: 0px;"/><g class="scrollbox" transform="" clip-path="url(#legend1152dd)"><g class="groups"><g class="traces" transform="translate(0,19.5)" style="opacity: 1;"><text class="legendtext" text-anchor="start" x="40" y="7.8" style="font-family: 'Open Sans', verdana, arial, sans-serif; font-size: 20px; fill: rgb(42, 63, 95); fill-opacity: 1; white-space: pre;">Wrong prediction</text><g class="layers" style="opacity: 0.7;"><g class="legendfill"/><g class="legendlines"/><g class="legendsymbols"><g class="legendpoints"><path class="legendbox" d="M6,6H-6V-6H6Z" transform="translate(20,0)" style="stroke-width: 2px; fill: rgb(255, 0, 0); fill-opacity: 1; stroke: rgb(255, 0, 0); stroke-opacity: 1;"/></g></g></g><rect class="legendtoggle" x="0" y="-14.5" width="197.84375" height="29" style="fill: rgb(0, 0, 0); fill-opacity: 0;"/></g><g class="traces" transform="translate(0,48.5)" style="opacity: 1;"><text class="legendtext" text-anchor="start" x="40" y="7.8" style="font-family: 'Open Sans', verdana, arial, sans-serif; font-size: 20px; fill: rgb(42, 63, 95); fill-opacity: 1; white-space: pre;">Correct prediction</text><g class="layers" style="opacity: 0.7;"><g class="legendfill"/><g class="legendlines"/><g class="legendsymbols"><g class="legendpoints"><path class="legendbox" d="M6,6H-6V-6H6Z" transform="translate(20,0)" style="stroke-width: 2px; fill: rgb(0, 128, 0); fill-opacity: 1; stroke: rgb(0, 128, 0); stroke-opacity: 1;"/></g></g></g><rect class="legendtoggle" x="0" y="-14.5" width="197.84375" height="29" style="fill: rgb(0, 0, 0); fill-opacity: 0;"/></g></g></g><rect class="scrollbar" rx="20" ry="3" width="0" height="0" x="0" y="0" style="fill: rgb(128, 139, 164); fill-opacity: 1;"/></g><g class="g-gtitle"><text class="gtitle" x="700" y="50" text-anchor="middle" dy="0em" style="opacity: 1; font-family: 'Open Sans', verdana, arial, sans-serif; font-size: 30px; fill: rgb(42, 63, 95); fill-opacity: 1; white-space: pre;">Probability distribution of predictions by source</text></g><g class="g-xtitle"><text class="xtitle" x="244.15" y="585.3" text-anchor="middle" style="opacity: 1; font-family: 'Open Sans', verdana, arial, sans-serif; font-size: 24px; fill: rgb(42, 63, 95); fill-opacity: 1; white-space: pre;">Sources</text></g><g class="g-x2title"><text class="x2title" x="622.5" y="585.3" text-anchor="middle" style="opacity: 1; font-family: 'Open Sans', verdana, arial, sans-serif; font-size: 24px; fill: rgb(42, 63, 95); fill-opacity: 1; white-space: pre;">Sources</text></g><g class="g-x3title"><text class="x3title" x="1000.8499999999999" y="585.3" text-anchor="middle" style="opacity: 1; font-family: 'Open Sans', verdana, arial, sans-serif; font-size: 24px; fill: rgb(42, 63, 95); fill-opacity: 1; white-space: pre;">Sources</text></g><g class="g-ytitle" transform="translate(0.712890625,0)"><text class="ytitle" transform="rotate(-90,21.2875,310)" x="21.2875" y="310" text-anchor="middle" style="opacity: 1; font-family: 'Open Sans', verdana, arial, sans-serif; font-size: 24px; fill: rgb(42, 63, 95); fill-opacity: 1; white-space: pre;">Probability</text></g><g class="g-y2title"/><g class="g-y3title"/><g class="annotation" data-index="0" style="opacity: 1;"><g class="annotation-text-g" transform="rotate(0,244.15,87)"><g class="cursor-pointer" transform="translate(213,74)"><rect class="bg" x="0.5" y="0.5" width="62" height="25" style="stroke-width: 1px; stroke: rgb(0, 0, 0); stroke-opacity: 0; fill: rgb(0, 0, 0); fill-opacity: 0;"/><text class="annotation-text" text-anchor="middle" x="31.28125" y="20" style="font-family: 'Open Sans', verdana, arial, sans-serif; font-size: 20px; fill: rgb(42, 63, 95); fill-opacity: 1; white-space: pre;">Vanilla</text></g></g></g><g class="annotation" data-index="1" style="opacity: 1;"><g class="annotation-text-g" transform="rotate(0,622.4999999999999,87)"><g class="cursor-pointer" transform="translate(585,74)"><rect class="bg" x="0.5" y="0.5" width="74" height="25" style="stroke-width: 1px; stroke: rgb(0, 0, 0); stroke-opacity: 0; fill: rgb(0, 0, 0); fill-opacity: 0;"/><text class="annotation-text" text-anchor="middle" x="37.5625" y="20" style="font-family: 'Open Sans', verdana, arial, sans-serif; font-size: 20px; fill: rgb(42, 63, 95); fill-opacity: 1; white-space: pre;">RSTMix</text></g></g></g><g class="annotation" data-index="2" style="opacity: 1;"><g class="annotation-text-g" transform="rotate(0,1000.85,87)"><g class="cursor-pointer" transform="translate(962,74)"><rect class="bg" x="0.5" y="0.5" width="76" height="25" style="stroke-width: 1px; stroke: rgb(0, 0, 0); stroke-opacity: 0; fill: rgb(0, 0, 0); fill-opacity: 0;"/><text class="annotation-text" text-anchor="middle" x="38.671875" y="20" style="font-family: 'Open Sans', verdana, arial, sans-serif; font-size: 20px; fill: rgb(42, 63, 95); fill-opacity: 1; white-space: pre;">POSMix</text></g></g></g></g></svg>